SplineFontDB: 3.0
FontName: DOF-1-Italic
FullName: DOF-1-Italic
FamilyName: DOF-1
Weight: Italic

StartChar: exclam
Encoding: 33 33 1
Width: 303
VWidth: 910
Flags: HW
LayerCount: 2
Fore
SplineSet
335 818 m 0
 355 821 379 818 392 811 c 0
 397 809 402 804 402 801 c 0
 402 799 224 87 223 84 c 0
 217 69 165 62 136 74 c 0
 130 77 123 82 123 86 c 0
 123 87 163 249 212 446 c 0
 299 796 302 803 305 807 c 0
 310 812 321 816 335 818 c 0
140 36 m 0
 149 37 173 37 182 35 c 0
 215 28 215 10 182 3 c 0
 169 0 143 0 130 3 c 0
 115 7 106 12 106 18 c 0
 106 26 118 33 140 36 c 0
EndSplineSet
EndChar

StartChar: quotedbl
Encoding: 34 34 2
Width: 303
VWidth: 910
Flags: HW
LayerCount: 2
Fore
SplineSet
263 818 m 0
 293 823 331 814 331 801 c 0
 331 798 301 679 300 675 c 0
 297 670 286 665 270 662 c 0
 258 660 234 661 224 664 c 0
 209 668 200 673 200 679 c 0
 200 680 208 709 216 743 c 0
 230 799 231 803 234 806 c 0
 239 811 248 815 263 818 c 0
407 818 m 0
 415 819 432 819 441 818 c 0
 459 815 468 811 472 804 c 0
 473 801 473 796 458 738 c 0
 445 687 442 676 440 674 c 0
 437 670 429 666 420 664 c 0
 409 661 384 660 372 662 c 0
 356 665 346 670 342 675 c 0
 341 678 342 679 357 741 c 0
 370 792 373 804 375 806 c 0
 379 811 392 816 407 818 c 0
EndSplineSet
EndChar

StartChar: numbersign
Encoding: 35 35 3
Width: 607
VWidth: 910
Flags: HW
LayerCount: 2
Fore
SplineSet
404 613 m 0
 435 618 472 609 472 596 c 0
 472 594 458 567 428 512 c 0
 404 467 384 431 383 430 c 0
 383 429 395 429 447 429 c 2
 511 430 l 1
 557 514 l 2
 582 560 604 601 606 602 c 0
 619 616 668 619 693 607 c 0
 699 604 704 600 704 596 c 0
 704 594 687 565 659 512 c 2
 613 430 l 1
 630 429 l 2
 648 428 659 426 668 421 c 0
 687 412 680 399 654 394 c 0
 647 392 642 392 620 391 c 2
 593 391 l 1
 547 308 l 1
 502 224 l 1
 518 223 l 2
 538 222 551 219 560 214 c 0
 571 208 570 199 557 193 c 0
 544 188 533 186 503 186 c 2
 482 186 l 1
 435 100 l 2
 410 54 387 14 386 13 c 0
 380 5 356 -1 333 0 c 0
 307 2 289 9 289 18 c 0
 289 21 301 45 333 103 c 0
 358 148 378 185 378 185 c 2
 378 186 349 186 314 186 c 2
 250 186 l 1
 204 100 l 2
 178 53 156 14 155 12 c 0
 150 7 141 4 126 1 c 0
 94 -4 57 5 57 18 c 0
 57 20 71 47 102 103 c 0
 127 148 147 185 147 185 c 2
 147 186 141 186 135 186 c 0
 111 186 92 190 85 198 c 0
 78 205 84 213 100 218 c 0
 111 222 116 222 141 223 c 2
 167 224 l 1
 213 307 l 2
 238 353 259 390 259 390 c 1
 259 390 251 391 242 391 c 0
 216 392 201 397 195 406 c 0
 192 410 192 410 195 414 c 0
 199 419 206 423 220 427 c 0
 225 428 233 428 253 429 c 2
 279 430 l 1
 326 514 l 2
 352 561 374 601 375 603 c 0
 380 608 389 610 404 613 c 0
490 391 m 2
 426 391 l 1
 362 391 l 1
 360 386 l 2
 358 382 337 345 313 301 c 2
 270 223 l 1
 334 223 l 1
 399 223 l 1
 444 307 l 2
 469 353 490 390 490 391 c 2
EndSplineSet
EndChar

StartChar: dollar
Encoding: 36 36 4
Width: 546
VWidth: 910
Flags: HW
LayerCount: 2
Fore
SplineSet
455 818 m 0
 465 820 489 819 499 816 c 0
 514 812 523 807 523 801 c 0
 523 799 508 735 505 727 c 0
 505 726 506 725 512 725 c 0
 532 723 564 716 581 709 c 0
 617 695 636 676 642 649 c 0
 643 641 643 626 641 620 c 0
 637 608 619 602 590 602 c 0
 578 602 572 601 566 603 c 0
 555 605 545 610 542 614 c 0
 540 617 540 617 541 627 c 0
 545 654 533 674 508 684 c 0
 504 685 500 686 499 686 c 2
 496 687 l 1
 462 553 l 2
 443 479 429 418 429 417 c 0
 429 415 431 414 443 409 c 0
 501 384 530 360 545 330 c 0
 552 315 553 307 553 289 c 0
 553 276 554 272 552 264 c 0
 546 234 530 202 512 177 c 0
 504 167 486 148 475 140 c 0
 443 116 402 101 355 95 c 2
 347 94 l 1
 338 55 l 2
 328 17 328 15 325 12 c 0
 321 8 316 7 308 4 c 0
 276 -5 228 3 228 18 c 0
 228 20 243 84 246 92 c 0
 246 93 244 94 238 94 c 0
 218 96 187 103 170 110 c 0
 134 124 115 143 109 170 c 0
 108 178 108 193 110 200 c 0
 114 211 132 218 161 218 c 0
 173 218 179 218 185 216 c 0
 196 214 206 209 209 205 c 0
 211 202 211 202 210 192 c 0
 206 165 218 146 243 136 c 0
 247 135 251 133 253 133 c 2
 256 132 l 1
 289 267 l 1
 323 402 l 1
 309 409 l 2
 248 434 215 458 200 489 c 0
 193 504 192 512 192 531 c 0
 192 549 193 557 200 578 c 0
 220 639 262 682 323 707 c 0
 343 714 372 722 395 725 c 2
 404 725 l 1
 413 765 l 2
 423 802 423 804 426 807 c 0
 431 812 440 815 455 818 c 0
364 568 m 2
 379 629 391 679 391 679 c 1
 391 679 386 677 381 674 c 0
 344 654 316 620 301 574 c 0
 295 556 293 546 293 531 c 0
 293 521 293 516 294 511 c 0
 297 501 304 487 310 479 c 0
 315 474 327 464 334 459 c 2
 337 457 l 1
 364 568 l 2
426 350 m 0
 423 353 420 355 417 357 c 2
 413 360 l 1
 387 251 l 2
 372 191 360 143 360 142 c 1
 361 142 364 144 369 147 c 0
 398 163 422 191 437 224 c 0
 442 237 449 255 451 266 c 0
 454 279 453 300 451 309 c 0
 447 324 437 341 426 350 c 0
EndSplineSet
EndChar

StartChar: percent
Encoding: 37 37 5
Width: 667
VWidth: 910
Flags: HW
LayerCount: 2
Fore
SplineSet
341 823 m 0
 369 827 394 823 408 816 c 0
 429 806 414 792 380 788 c 0
 368 787 365 786 357 781 c 0
 334 767 316 737 306 695 c 0
 297 658 296 631 302 611 c 0
 305 603 309 593 312 593 c 0
 314 593 325 603 330 609 c 0
 342 623 351 635 359 653 c 0
 364 664 370 685 374 697 c 0
 376 705 379 709 386 712 c 0
 396 717 404 718 421 719 c 0
 433 719 439 719 445 718 c 0
 461 715 472 710 475 705 c 0
 476 701 476 701 474 692 c 0
 465 659 452 631 436 609 c 0
 423 593 405 577 387 567 c 0
 349 549 292 545 251 560 c 0
 212 573 196 600 197 647 c 0
 198 663 200 678 205 699 c 0
 215 738 228 764 250 786 c 0
 272 806 304 819 341 823 c 0
770 818 m 0
 785 820 806 819 818 815 c 0
 833 810 841 802 835 795 c 0
 833 794 675 616 482 401 c 0
 142 21 131 10 126 7 c 0
 101 -5 51 -2 38 13 c 0
 34 17 34 21 37 25 c 0
 39 26 197 203 390 418 c 0
 730 798 741 809 746 812 c 0
 752 815 762 817 770 818 c 0
543 268 m 0
 548 268 558 269 567 268 c 0
 584 268 594 266 603 261 c 0
 615 256 617 249 611 243 c 0
 606 238 595 235 574 231 c 0
 554 228 529 202 514 167 c 0
 505 146 495 115 492 94 c 0
 489 70 493 51 502 39 c 0
 507 33 508 33 515 38 c 0
 530 47 543 63 552 81 c 0
 557 91 562 108 565 118 c 0
 566 123 569 126 575 129 c 0
 596 140 637 139 657 129 c 0
 664 125 666 122 666 117 c 0
 665 111 658 88 653 78 c 0
 629 29 589 1 531 -5 c 0
 519 -7 486 -6 473 -4 c 0
 436 2 410 17 399 39 c 0
 394 50 391 59 390 73 c 0
 390 88 393 101 398 123 c 0
 410 170 426 202 451 227 c 0
 474 250 504 263 543 268 c 0
EndSplineSet
EndChar

StartChar: ampersand
Encoding: 38 38 6
Width: 546
VWidth: 910
Flags: HW
LayerCount: 2
Fore
SplineSet
455 824 m 0
 465 825 499 824 511 822 c 0
 546 817 574 804 592 785 c 0
 607 770 614 752 619 727 c 0
 621 712 621 680 618 661 c 0
 613 632 607 605 601 588 c 0
 582 542 545 501 482 456 c 0
 465 444 444 431 405 406 c 0
 387 395 371 385 370 385 c 0
 369 384 370 381 374 368 c 0
 389 313 408 254 430 200 c 0
 438 178 453 145 458 135 c 2
 461 130 l 1
 475 130 l 2
 502 130 523 125 528 115 c 0
 529 112 529 112 527 104 c 0
 522 91 515 78 505 66 c 2
 500 60 l 1
 506 52 l 2
 512 44 522 33 531 26 c 0
 535 22 535 22 535 19 c 0
 535 14 531 11 524 7 c 0
 508 -1 476 -1 455 4 c 0
 447 7 442 9 436 14 c 2
 431 17 l 1
 420 14 l 2
 379 0 327 -6 272 -5 c 0
 230 -4 200 1 173 15 c 0
 131 35 110 67 105 118 c 0
 102 148 108 200 119 235 c 0
 138 290 182 337 264 391 c 1
 266 393 l 1
 264 400 l 2
 255 436 245 494 241 530 c 0
 238 557 239 591 243 608 c 0
 248 636 262 675 274 700 c 0
 291 734 316 766 340 783 c 0
 372 807 408 820 455 824 c 0
479 786 m 0
 474 788 474 788 468 786 c 0
 450 781 425 764 410 747 c 0
 381 714 362 674 347 616 c 0
 342 599 340 591 341 567 c 0
 341 543 342 531 346 504 c 0
 349 484 354 451 355 450 c 0
 356 449 391 471 409 484 c 0
 457 521 486 554 501 594 c 0
 507 610 513 636 517 663 c 0
 520 682 520 710 518 725 c 0
 512 755 498 778 479 786 c 0
288 312 m 0
 287 317 285 321 285 321 c 2
 284 323 263 301 254 290 c 0
 228 257 215 228 208 176 c 0
 197 107 213 57 251 39 c 0
 264 33 270 32 290 32 c 0
 310 33 320 33 334 36 c 0
 352 40 374 49 387 58 c 2
 394 63 l 1
 390 70 l 2
 365 109 337 172 312 240 c 0
 304 262 293 297 288 312 c 0
EndSplineSet
EndChar

StartChar: parenleft
Encoding: 40 40 7
Width: 212
VWidth: 910
Flags: HW
LayerCount: 2
Fore
SplineSet
325 848 m 0
 351 851 377 846 387 836 c 0
 393 830 389 822 375 817 c 0
 370 815 370 814 365 808 c 0
 351 790 330 740 305 664 c 0
 283 597 265 532 236 415 c 0
 211 317 198 265 188 210 c 0
 172 129 162 51 163 23 c 0
 164 8 164 2 168 0 c 0
 170 -1 173 -3 175 -5 c 0
 179 -8 178 -8 178 -11 c 0
 178 -26 132 -35 97 -26 c 0
 77 -21 69 -12 64 3 c 0
 61 17 61 44 66 82 c 0
 77 174 94 253 135 419 c 0
 171 564 194 643 224 724 c 0
 259 820 274 841 313 847 c 0
 318 848 322 848 325 848 c 0
EndSplineSet
EndChar

StartChar: parenright
Encoding: 41 41 8
Width: 212
VWidth: 910
Flags: HW
LayerCount: 2
Fore
SplineSet
270 848 m 0
 296 852 330 847 342 835 c 0
 350 828 354 817 355 797 c 0
 357 758 342 655 318 549 c 0
 302 477 267 338 247 265 c 0
 221 171 187 71 165 28 c 0
 144 -16 127 -28 84 -30 c 0
 60 -31 39 -26 30 -17 c 0
 24 -11 28 -3 42 2 c 0
 47 4 47 5 52 11 c 0
 66 29 87 80 112 156 c 0
 134 222 152 287 181 405 c 0
 206 502 218 554 228 610 c 0
 244 690 255 768 254 797 c 0
 253 812 252 817 248 819 c 0
 246 820 244 822 242 824 c 0
 238 827 238 827 238 830 c 0
 238 838 250 844 270 848 c 0
EndSplineSet
EndChar

StartChar: asterisk
Encoding: 42 42 9
Width: 485
VWidth: 910
Flags: HW
LayerCount: 2
Fore
SplineSet
426 818 m 0
 446 821 470 818 483 811 c 0
 488 809 493 804 493 801 c 0
 493 800 491 789 487 775 c 0
 483 761 481 749 481 749 c 2
 482 749 483 750 486 751 c 0
 498 757 512 760 530 760 c 0
 550 760 564 757 573 751 c 0
 581 746 582 739 575 734 c 0
 574 733 550 721 523 706 c 2
 473 682 l 1
 482 675 l 2
 487 671 504 661 519 651 c 0
 534 640 548 631 549 629 c 0
 555 621 545 613 524 608 c 0
 518 606 513 606 502 606 c 0
 480 606 466 609 454 616 c 2
 449 620 l 2
 448 620 445 606 441 591 c 0
 433 559 433 559 424 554 c 0
 415 549 406 548 389 547 c 0
 367 546 350 550 340 557 c 0
 333 562 333 562 340 591 c 0
 344 605 346 616 346 616 c 2
 346 617 344 615 339 613 c 0
 316 603 278 602 257 613 c 0
 250 617 247 619 247 624 c 0
 247 630 248 632 303 659 c 0
 330 673 353 684 353 684 c 1
 353 684 337 695 317 709 c 0
 298 723 280 734 279 736 c 0
 274 741 276 748 286 753 c 0
 295 758 304 759 321 760 c 0
 345 761 359 757 372 750 c 2
 379 745 l 1
 386 775 l 2
 392 802 393 804 396 807 c 0
 401 812 412 816 426 818 c 0
EndSplineSet
EndChar

StartChar: plus
Encoding: 43 43 10
Width: 607
VWidth: 910
Flags: HW
LayerCount: 2
Fore
SplineSet
437 613 m 0
 451 615 472 614 484 610 c 0
 493 607 500 603 502 598 c 0
 503 596 495 563 470 461 c 0
 452 387 436 327 436 327 c 2
 436 326 476 326 524 326 c 0
 575 326 615 326 619 325 c 0
 645 321 660 311 651 301 c 0
 647 296 634 291 619 289 c 0
 615 288 574 289 519 289 c 2
 426 289 l 1
 392 152 l 2
 374 77 358 16 357 14 c 0
 355 11 348 7 343 5 c 0
 320 -3 285 -1 268 7 c 0
 263 10 258 15 258 18 c 0
 258 19 323 282 325 287 c 0
 325 289 319 289 232 289 c 0
 141 290 139 289 132 291 c 0
 99 299 99 315 132 323 c 0
 139 325 141 325 237 326 c 2
 334 327 l 1
 369 463 l 2
 398 580 403 600 405 602 c 0
 410 607 422 611 437 613 c 0
EndSplineSet
EndChar

StartChar: comma
Encoding: 44 44 11
Width: 182
VWidth: 910
Flags: HW
LayerCount: 2
Fore
SplineSet
80 36 m 0
 94 38 115 37 127 33 c 0
 137 30 144 26 146 21 c 0
 148 17 140 -7 131 -28 c 0
 117 -60 88 -107 78 -113 c 0
 72 -116 62 -119 52 -120 c 0
 40 -122 17 -121 8 -118 c 0
 -7 -114 -15 -108 -15 -103 c 0
 -15 -101 -12 -97 -7 -89 c 0
 17 -56 33 -24 45 17 c 0
 47 22 47 24 49 26 c 0
 54 31 66 34 80 36 c 0
EndSplineSet
EndChar

StartChar: hyphen
Encoding: 45 45 12
Width: 607
VWidth: 910
Flags: HW
LayerCount: 2
Fore
SplineSet
142 325 m 0
 149 326 611 326 619 325 c 0
 640 322 654 315 654 307 c 0
 654 299 640 292 618 289 c 0
 613 288 529 289 375 289 c 2
 140 289 l 1
 132 291 l 2
 127 292 121 294 118 296 c 0
 96 306 108 320 142 325 c 0
EndSplineSet
EndChar

StartChar: period
Encoding: 46 46 13
Width: 182
VWidth: 910
Flags: HW
LayerCount: 2
Fore
SplineSet
76 43 m 0
 110 48 146 41 155 28 c 0
 159 23 159 21 155 16 c 0
 143 1 91 -6 58 5 c 0
 44 10 36 17 36 23 c 0
 36 26 41 31 46 34 c 0
 51 38 65 42 76 43 c 0
EndSplineSet
EndChar

StartChar: slash
Encoding: 47 47 14
Width: 425
VWidth: 910
Flags: HW
LayerCount: 2
Fore
SplineSet
528 818 m 0
 543 820 564 819 576 815 c 0
 588 812 594 806 594 801 c 0
 594 798 540 704 364 405 c 0
 146 34 133 12 129 9 c 0
 114 0 80 -2 56 4 c 0
 43 8 35 13 35 18 c 0
 35 21 90 114 265 413 c 0
 392 629 496 806 497 807 c 0
 502 812 515 816 528 818 c 0
EndSplineSet
EndChar

StartChar: zero
Encoding: 48 48 15
Width: 546
VWidth: 910
Flags: HW
LayerCount: 2
Fore
SplineSet
457 824 m 0
 466 825 485 825 492 824 c 0
 507 821 517 817 522 812 c 0
 526 807 526 805 522 800 c 0
 517 795 505 790 488 788 c 0
 474 786 470 786 461 782 c 0
 430 767 398 737 370 694 c 0
 328 630 297 553 268 447 c 0
 235 324 221 241 223 175 c 0
 225 128 230 96 244 71 c 0
 251 56 263 40 273 35 c 0
 278 32 279 33 291 39 c 0
 321 54 355 86 381 128 c 0
 425 195 456 272 486 388 c 0
 515 498 526 567 521 624 c 0
 520 639 517 656 514 666 c 0
 509 687 498 706 486 715 c 0
 482 719 481 720 476 721 c 0
 453 723 438 730 438 738 c 0
 438 757 497 764 542 750 c 0
 580 739 604 712 615 670 c 0
 620 651 623 623 623 597 c 0
 623 543 611 480 586 382 c 0
 555 264 525 189 479 118 c 0
 445 65 402 27 357 9 c 0
 305 -11 238 -10 195 12 c 0
 159 31 136 67 127 118 c 0
 118 181 122 254 143 350 c 0
 162 435 185 517 206 571 c 0
 230 633 262 693 293 732 c 0
 306 747 329 770 343 781 c 0
 378 807 410 819 457 824 c 0
EndSplineSet
EndChar

StartChar: one
Encoding: 49 49 16
Width: 379
VWidth: 910
Flags: HW
LayerCount: 2
Fore
SplineSet
451 818 m 0
 461 820 484 819 494 816 c 0
 509 812 519 807 519 801 c 0
 519 799 476 625 423 414 c 2
 327 31 l 1
 331 29 l 1
 348 18 335 5 304 1 c 0
 295 0 251 0 242 1 c 0
 207 6 196 22 222 32 c 2
 226 34 l 1
 309 368 l 2
 355 551 393 702 393 702 c 2
 393 703 364 681 329 655 c 0
 283 621 264 608 260 606 c 0
 249 602 241 601 223 602 c 0
 208 602 204 601 198 603 c 0
 183 607 173 614 173 619 c 0
 173 621 174 622 177 625 c 0
 182 630 424 809 429 812 c 0
 434 814 442 816 451 818 c 0
EndSplineSet
EndChar

StartChar: two
Encoding: 50 50 17
Width: 546
VWidth: 910
Flags: HW
LayerCount: 2
Fore
SplineSet
441 824 m 0
 527 829 593 810 624 769 c 0
 637 753 644 730 647 705 c 0
 652 667 641 606 624 563 c 0
 608 523 578 481 542 441 c 0
 510 405 477 373 398 306 c 0
 346 261 332 249 307 226 c 0
 251 173 213 125 189 79 c 0
 183 65 178 54 174 44 c 2
 172 37 l 1
 310 37 l 2
 427 37 451 37 458 36 c 0
 503 29 501 6 455 1 c 0
 449 0 399 0 272 0 c 2
 98 1 l 1
 90 3 l 2
 80 5 71 9 67 13 c 0
 65 16 66 16 66 20 c 0
 67 26 74 50 79 63 c 0
 103 120 147 177 216 242 c 0
 241 265 255 277 306 321 c 0
 356 364 370 377 395 400 c 0
 478 478 523 545 539 619 c 0
 552 675 549 715 533 747 c 0
 525 762 516 774 501 781 c 0
 486 787 476 788 453 786 c 0
 401 781 360 752 340 706 c 0
 338 701 336 696 335 691 c 0
 332 683 329 679 321 675 c 0
 295 662 240 669 233 684 c 0
 232 688 232 687 234 695 c 0
 240 718 255 741 271 759 c 0
 307 796 365 819 441 824 c 0
EndSplineSet
EndChar

StartChar: three
Encoding: 51 51 18
Width: 546
VWidth: 910
Flags: HW
LayerCount: 2
Fore
SplineSet
420 825 m 0
 432 826 485 825 500 824 c 0
 555 819 596 802 621 777 c 0
 656 741 663 684 643 606 c 0
 628 545 605 500 570 465 c 0
 546 440 524 426 486 411 c 2
 482 409 l 1
 490 405 l 2
 535 381 556 339 554 279 c 0
 552 232 536 172 514 129 c 0
 473 52 410 9 319 -3 c 0
 288 -7 234 -8 208 -5 c 0
 151 2 106 19 88 39 c 0
 79 49 75 61 78 72 c 0
 81 84 97 90 125 91 c 0
 149 92 167 87 175 80 c 2
 179 76 l 1
 179 67 l 2
 179 59 179 59 181 55 c 0
 186 48 192 43 208 38 c 0
 227 32 242 30 272 32 c 0
 287 33 292 32 300 35 c 0
 319 40 339 49 355 62 c 0
 370 74 389 95 402 115 c 0
 421 144 438 186 446 229 c 0
 451 254 452 264 452 286 c 0
 452 308 451 318 446 333 c 0
 439 357 427 372 409 382 c 0
 398 388 389 390 373 391 c 0
 348 393 335 397 328 404 c 0
 324 409 324 411 328 416 c 0
 335 423 349 427 374 429 c 0
 398 430 417 436 438 448 c 0
 487 477 523 534 542 611 c 0
 554 659 555 698 546 728 c 0
 537 757 519 777 494 785 c 0
 488 787 484 786 471 787 c 0
 444 789 426 787 403 782 c 0
 370 774 355 763 349 747 c 0
 345 735 330 729 302 728 c 0
 278 727 260 732 252 739 c 0
 247 743 248 743 248 746 c 0
 248 750 248 753 251 758 c 0
 257 771 273 785 291 794 c 0
 320 809 372 821 420 825 c 0
EndSplineSet
EndChar

StartChar: four
Encoding: 52 52 19
Width: 500
VWidth: 910
Flags: HW
LayerCount: 2
Fore
SplineSet
378 818 m 0
 403 822 434 815 441 806 c 0
 445 802 444 801 442 797 c 0
 441 795 406 734 363 660 c 0
 320 585 286 524 285 523 c 0
 285 522 289 522 322 522 c 2
 360 522 l 1
 361 526 l 2
 361 528 365 545 370 563 c 0
 375 585 380 599 381 601 c 0
 385 606 393 610 406 613 c 0
 418 615 443 615 455 612 c 0
 470 608 480 602 480 596 c 0
 480 594 476 578 471 559 c 0
 466 540 462 524 462 523 c 0
 462 522 478 522 509 522 c 0
 534 522 558 523 562 522 c 0
 589 518 602 507 593 498 c 0
 588 493 577 488 562 486 c 0
 558 485 531 485 503 485 c 2
 452 485 l 1
 394 250 l 2
 339 33 335 16 333 13 c 0
 320 -1 271 -5 246 7 c 0
 240 10 235 14 235 18 c 0
 235 19 261 125 293 253 c 2
 351 485 l 1
 282 485 l 2
 209 485 203 485 190 490 c 0
 179 493 170 499 171 504 c 0
 172 507 343 803 346 807 c 0
 351 812 363 816 378 818 c 0
EndSplineSet
EndChar

StartChar: five
Encoding: 53 53 20
Width: 546
VWidth: 910
Flags: HW
LayerCount: 2
Fore
SplineSet
293 818 m 0
 298 819 338 819 477 819 c 2
 654 818 l 1
 661 816 l 2
 694 808 694 793 661 785 c 2
 654 783 l 1
 505 782 l 1
 357 782 l 1
 336 696 l 2
 324 650 315 611 314 610 c 2
 314 610 316 610 321 611 c 0
 331 614 358 617 373 618 c 0
 380 619 399 619 417 619 c 0
 452 619 462 618 484 613 c 0
 513 605 535 592 552 573 c 0
 576 548 588 511 590 459 c 0
 591 411 582 351 558 270 c 0
 533 179 497 113 451 66 c 0
 419 35 383 14 341 3 c 0
 310 -4 280 -8 239 -5 c 0
 153 0 100 25 86 66 c 0
 84 71 85 75 85 86 c 0
 85 103 86 108 96 113 c 0
 122 125 176 121 186 106 c 0
 187 104 187 103 186 95 c 0
 182 69 193 49 218 39 c 0
 230 34 248 32 269 32 c 0
 280 32 290 35 305 42 c 0
 338 57 365 83 392 125 c 0
 427 178 453 246 475 345 c 0
 492 420 493 477 478 523 c 0
 470 548 454 569 433 579 c 0
 425 583 420 584 398 582 c 0
 342 578 303 554 290 514 c 0
 288 507 286 505 279 501 c 0
 252 489 198 495 190 510 c 2
 188 512 l 1
 225 658 l 2
 258 790 261 804 264 806 c 0
 269 811 278 815 293 818 c 0
EndSplineSet
EndChar

StartChar: six
Encoding: 54 54 21
Width: 546
VWidth: 910
Flags: HW
LayerCount: 2
Fore
SplineSet
423 824 m 0
 434 825 465 825 482 824 c 0
 568 819 621 794 637 755 c 0
 643 739 642 714 635 707 c 0
 627 699 607 694 583 695 c 0
 559 696 544 702 539 710 c 0
 538 713 538 714 539 719 c 0
 542 732 540 742 535 754 c 0
 529 767 518 776 501 781 c 0
 491 785 479 786 463 787 c 2
 451 787 l 1
 446 785 l 2
 438 780 427 770 419 762 c 0
 411 753 396 735 388 722 c 0
 371 694 347 651 330 610 c 2
 326 601 l 1
 330 603 l 2
 389 627 466 626 515 601 c 0
 545 586 568 560 578 529 c 0
 594 480 593 419 576 343 c 0
 556 250 532 185 502 133 c 0
 474 87 443 53 407 31 c 0
 396 24 376 14 364 10 c 0
 312 -9 246 -10 200 7 c 0
 161 22 134 49 122 86 c 0
 107 132 106 187 121 260 c 0
 126 283 141 346 152 388 c 0
 185 507 214 586 254 665 c 0
 296 748 327 787 367 807 c 0
 382 815 404 822 423 824 c 0
434 578 m 0
 430 580 426 582 424 583 c 0
 417 584 393 574 377 563 c 0
 351 546 330 525 308 491 c 0
 296 473 291 465 282 447 c 0
 262 407 246 363 231 301 c 0
 208 205 205 143 222 92 c 0
 229 67 246 46 264 37 c 0
 274 32 276 31 286 34 c 0
 309 41 335 57 357 79 c 0
 388 111 418 160 439 216 c 0
 458 268 479 350 485 402 c 0
 491 448 489 490 478 523 c 0
 470 548 454 569 434 578 c 0
EndSplineSet
EndChar

StartChar: seven
Encoding: 55 55 22
Width: 485
VWidth: 910
Flags: HW
LayerCount: 2
Fore
SplineSet
263 818 m 0
 268 819 309 819 442 819 c 0
 624 819 622 820 636 815 c 0
 648 812 654 806 654 801 c 0
 654 798 597 692 443 407 c 0
 326 191 231 14 229 13 c 0
 216 -1 168 -5 143 7 c 0
 137 10 132 14 132 18 c 0
 132 20 206 156 337 400 c 0
 450 608 541 780 542 781 c 0
 542 782 515 782 407 782 c 0
 293 782 270 782 263 783 c 0
 248 786 238 790 233 795 c 0
 229 800 229 801 233 806 c 0
 238 811 248 815 263 818 c 0
EndSplineSet
EndChar

StartChar: eight
Encoding: 56 56 23
Width: 546
VWidth: 910
Flags: HW
LayerCount: 2
Fore
SplineSet
453 824 m 0
 463 825 502 824 513 823 c 0
 583 814 626 785 641 738 c 0
 653 704 652 667 639 615 c 0
 624 553 600 508 564 472 c 0
 542 450 521 436 492 424 c 2
 484 421 l 1
 484 421 487 418 492 416 c 0
 514 404 533 385 542 364 c 0
 562 321 560 256 535 182 c 0
 522 145 508 115 486 87 c 0
 477 75 455 54 443 45 c 0
 400 14 347 -3 286 -5 c 0
 219 -7 161 10 131 42 c 0
 120 54 112 67 107 83 c 0
 94 119 96 165 111 225 c 0
 127 288 154 337 191 372 c 0
 214 394 239 410 271 422 c 0
 273 423 273 423 266 428 c 0
 256 433 247 439 240 446 c 0
 204 480 196 538 216 617 c 0
 231 675 253 720 288 755 c 0
 302 769 308 775 323 784 c 0
 358 807 401 820 453 824 c 0
489 786 m 0
 457 794 409 771 377 736 c 0
 349 704 329 664 316 613 c 0
 295 529 307 469 351 448 c 0
 365 441 377 438 392 442 c 0
 413 446 433 455 452 470 c 0
 467 481 487 504 499 522 c 0
 528 568 550 644 548 694 c 0
 546 722 540 743 527 760 c 0
 518 772 504 782 489 786 c 0
392 401 m 0
 366 407 326 394 294 368 c 0
 252 333 222 273 207 198 c 0
 202 173 200 161 200 139 c 0
 200 115 202 107 207 91 c 0
 216 61 233 43 259 35 c 0
 269 31 285 32 298 35 c 0
 338 46 372 72 400 114 c 0
 427 155 449 222 454 279 c 0
 458 318 449 352 433 375 c 0
 423 387 407 397 392 401 c 0
EndSplineSet
EndChar

StartChar: nine
Encoding: 57 57 24
Width: 546
VWidth: 910
Flags: HW
LayerCount: 2
Fore
SplineSet
451 824 m 0
 464 825 497 824 512 822 c 0
 559 815 593 796 614 764 c 0
 630 739 639 707 641 664 c 0
 642 619 635 575 615 495 c 0
 575 337 543 246 497 155 c 0
 450 60 415 20 365 4 c 0
 340 -4 312 -8 269 -5 c 0
 183 0 130 25 114 64 c 0
 108 80 109 105 116 112 c 0
 124 120 143 125 168 124 c 0
 191 123 207 117 212 109 c 0
 213 106 213 105 212 100 c 0
 209 87 211 78 216 66 c 0
 222 53 233 43 250 38 c 0
 260 34 272 33 288 32 c 2
 299 32 l 1
 305 35 l 2
 313 40 324 49 332 57 c 0
 340 66 355 84 363 98 c 0
 380 125 404 168 421 209 c 2
 425 218 l 1
 421 217 l 2
 362 193 285 193 236 218 c 0
 206 233 183 259 173 291 c 0
 161 326 159 371 165 420 c 0
 171 472 193 557 212 609 c 0
 235 668 264 719 299 754 c 0
 331 785 368 805 410 816 c 0
 425 820 436 822 451 824 c 0
486 783 m 0
 476 788 473 789 464 785 c 0
 449 780 429 770 412 756 c 0
 385 735 355 697 334 653 c 0
 311 608 291 548 276 475 c 0
 259 399 258 342 273 297 c 0
 281 272 296 252 315 242 c 0
 325 237 327 235 337 238 c 0
 367 247 400 272 425 304 c 0
 434 314 452 340 458 352 c 0
 483 396 502 447 520 518 c 0
 543 614 546 676 529 728 c 0
 522 753 504 774 486 783 c 0
EndSplineSet
EndChar

StartChar: colon
Encoding: 58 58 25
Width: 182
VWidth: 910
Flags: HW
LayerCount: 2
Fore
SplineSet
218 613 m 0
 252 618 288 611 297 598 c 0
 301 593 301 591 297 586 c 0
 285 571 233 564 200 575 c 0
 186 580 178 587 178 593 c 0
 178 596 183 600 188 603 c 0
 193 607 207 612 218 613 c 0
76 43 m 0
 110 48 146 41 155 28 c 0
 159 23 159 21 155 16 c 0
 143 1 91 -6 58 5 c 0
 44 10 36 17 36 23 c 0
 36 26 41 31 46 34 c 0
 51 38 65 42 76 43 c 0
EndSplineSet
EndChar

StartChar: semicolon
Encoding: 59 59 26
Width: 182
VWidth: 910
Flags: HW
LayerCount: 2
Fore
SplineSet
218 616 m 0
 252 621 289 615 298 602 c 0
 302 597 302 595 298 590 c 0
 286 575 234 568 201 579 c 0
 187 584 179 590 179 596 c 0
 179 599 183 604 188 607 c 0
 193 611 207 615 218 616 c 0
80 36 m 0
 94 38 115 37 127 33 c 0
 137 30 144 26 146 21 c 0
 148 17 140 -7 131 -28 c 0
 117 -60 88 -107 78 -113 c 0
 72 -116 62 -119 52 -120 c 0
 40 -122 17 -121 8 -118 c 0
 -7 -114 -15 -108 -15 -103 c 0
 -15 -101 -12 -97 -7 -89 c 0
 17 -56 33 -24 45 17 c 0
 47 22 47 24 49 26 c 0
 54 31 66 34 80 36 c 0
EndSplineSet
EndChar

StartChar: less
Encoding: 60 60 27
Width: 607
VWidth: 910
Flags: HW
LayerCount: 2
Fore
SplineSet
656 613 m 0
 667 615 691 615 701 612 c 0
 722 607 731 597 722 589 c 0
 720 587 610 525 468 446 c 0
 330 370 217 306 217 306 c 2
 217 305 298 243 395 167 c 0
 493 91 575 28 578 25 c 0
 583 20 583 18 579 13 c 0
 571 5 549 -1 525 0 c 0
 509 1 494 4 488 9 c 0
 479 15 113 298 110 301 c 0
 106 305 106 309 111 314 c 0
 116 319 636 608 643 610 c 0
 647 611 652 612 656 613 c 0
EndSplineSet
EndChar

StartChar: equal
Encoding: 61 61 28
Width: 607
VWidth: 910
Flags: HW
LayerCount: 2
Fore
SplineSet
167 428 m 0
 175 429 636 429 644 428 c 0
 670 424 685 414 676 404 c 0
 672 399 659 394 644 392 c 0
 635 391 176 391 167 392 c 0
 141 396 127 406 136 416 c 0
 140 421 153 426 167 428 c 0
114 223 m 0
 123 224 582 225 593 223 c 0
 608 221 620 216 625 211 c 0
 634 202 620 192 593 188 c 0
 588 187 498 187 355 187 c 0
 156 187 121 187 114 188 c 0
 96 191 86 195 82 202 c 0
 81 206 81 207 85 211 c 0
 89 216 99 220 114 223 c 0
EndSplineSet
EndChar

StartChar: greater
Encoding: 62 62 29
Width: 607
VWidth: 910
Flags: HW
LayerCount: 2
Fore
SplineSet
213 613 m 0
 221 614 246 614 254 612 c 0
 262 610 269 608 274 604 c 0
 280 599 649 316 651 313 c 0
 655 309 655 305 651 301 c 0
 648 298 128 8 120 5 c 0
 112 2 103 1 91 0 c 0
 54 -2 25 12 38 25 c 0
 40 27 139 82 293 168 c 0
 430 244 544 309 544 309 c 1
 544 309 463 373 363 450 c 0
 264 526 181 590 180 591 c 0
 178 595 179 598 182 602 c 0
 186 607 198 611 213 613 c 0
EndSplineSet
EndChar

StartChar: question
Encoding: 63 63 30
Width: 485
VWidth: 910
Flags: HW
LayerCount: 2
Fore
SplineSet
423 824 m 0
 433 825 457 825 468 824 c 0
 519 819 558 803 583 778 c 0
 597 763 607 742 612 718 c 0
 620 678 613 619 593 557 c 0
 558 449 491 383 395 365 c 2
 384 363 l 2
 384 362 369 299 350 223 c 0
 330 147 314 83 313 82 c 0
 305 70 264 64 238 71 c 0
 224 74 214 81 214 86 c 0
 214 89 286 377 288 382 c 0
 289 384 290 386 293 388 c 0
 301 394 314 397 336 398 c 0
 351 399 352 398 360 401 c 0
 404 416 445 454 471 508 c 0
 491 547 505 597 512 647 c 0
 514 664 515 697 512 711 c 0
 507 737 496 759 481 771 c 0
 470 780 457 786 447 787 c 0
 426 789 390 773 365 751 c 0
 342 731 320 699 305 667 c 0
 296 646 286 621 281 601 c 0
 280 595 279 589 277 587 c 0
 274 583 266 580 257 577 c 0
 250 575 246 575 229 575 c 0
 212 575 209 575 202 577 c 0
 188 581 178 587 178 592 c 0
 178 596 184 617 189 632 c 0
 203 673 220 706 244 735 c 0
 252 745 273 767 282 774 c 0
 311 796 344 810 381 818 c 0
 394 821 412 824 423 824 c 0
231 36 m 0
 240 37 264 37 273 35 c 0
 306 28 306 10 273 3 c 0
 260 0 234 0 221 3 c 0
 206 7 197 12 197 18 c 0
 197 26 209 33 231 36 c 0
EndSplineSet
EndChar

StartChar: at
Encoding: 64 64 31
Width: 728
VWidth: 910
Flags: HW
LayerCount: 2
Fore
SplineSet
518 728 m 0
 531 729 558 729 570 728 c 0
 657 722 723 689 755 633 c 0
 768 612 777 581 781 553 c 0
 788 504 783 447 767 376 c 0
 760 346 755 333 747 316 c 0
 722 266 685 232 640 221 c 0
 618 216 585 216 566 221 c 0
 563 221 562 222 562 222 c 2
 561 222 560 219 559 216 c 0
 555 206 544 186 539 177 c 0
 507 130 462 106 401 103 c 0
 378 102 355 107 340 113 c 0
 306 128 291 159 289 215 c 0
 288 253 294 296 310 362 c 0
 326 427 339 461 357 498 c 0
 375 535 391 560 412 581 c 0
 425 593 434 599 447 605 c 0
 477 621 515 625 553 618 c 0
 591 610 615 592 625 563 c 0
 632 541 633 516 627 482 c 0
 625 472 583 296 579 285 c 0
 579 284 581 283 590 283 c 0
 596 282 604 281 608 280 c 0
 611 280 615 280 616 279 c 0
 618 279 619 279 624 284 c 0
 637 300 647 319 654 339 c 0
 665 367 677 423 682 470 c 0
 684 487 684 529 682 544 c 0
 677 573 670 600 658 621 c 0
 643 648 618 671 589 683 c 0
 555 696 524 695 482 680 c 0
 437 665 396 637 363 601 c 0
 317 549 284 487 259 405 c 0
 244 360 234 312 229 272 c 0
 221 204 227 148 250 104 c 0
 268 69 300 44 335 35 c 0
 340 33 347 33 363 32 c 0
 376 31 386 31 391 30 c 0
 419 24 426 11 407 2 c 0
 394 -4 380 -5 350 -5 c 0
 324 -4 311 -4 290 1 c 0
 224 14 177 47 151 97 c 0
 120 154 116 234 139 337 c 0
 149 381 163 426 176 461 c 0
 216 562 277 638 353 681 c 0
 399 708 461 725 518 728 c 0
523 588 m 0
 520 590 518 591 517 591 c 2
 517 591 514 589 511 587 c 0
 475 566 438 512 413 438 c 0
 398 392 379 317 374 276 c 0
 367 227 369 184 380 159 c 0
 385 149 390 141 396 136 c 2
 399 134 l 1
 406 137 l 2
 440 150 469 186 486 240 c 0
 491 256 544 468 547 484 c 0
 556 537 548 574 523 588 c 0
EndSplineSet
EndChar

StartChar: A
Encoding: 65 65 32
Width: 576
VWidth: 910
Flags: HW
LayerCount: 2
Fore
SplineSet
435 818 m 0
 446 819 530 819 542 818 c 0
 559 815 570 810 573 803 c 0
 573 802 566 631 555 409 c 0
 538 69 535 17 534 14 c 0
 526 2 483 -3 455 4 c 0
 447 7 441 9 438 13 c 0
 435 16 435 16 435 25 c 0
 435 36 450 326 450 335 c 2
 451 342 l 1
 374 342 l 1
 298 342 l 1
 224 178 l 2
 176 71 149 15 147 13 c 0
 132 -3 70 -3 53 13 c 0
 50 16 50 16 50 19 c 0
 51 24 402 803 406 806 c 0
 411 811 420 815 435 818 c 0
461 549 m 0
 466 640 469 716 469 718 c 0
 469 721 453 688 392 552 c 0
 350 459 316 382 315 381 c 0
 315 379 318 380 383 380 c 0
 451 380 452 379 452 381 c 0
 452 382 456 458 461 549 c 0
EndSplineSet
EndChar

StartChar: B
Encoding: 66 66 33
Width: 546
VWidth: 910
Flags: HW
LayerCount: 2
Fore
SplineSet
279 818 m 0
 293 820 345 819 379 816 c 0
 458 810 520 793 566 766 c 0
 581 757 591 750 603 739 c 0
 628 714 640 683 642 648 c 0
 643 627 639 608 631 583 c 0
 621 554 605 527 586 502 c 0
 577 490 555 469 543 460 c 0
 517 440 481 421 449 411 c 2
 441 410 l 1
 450 406 l 2
 498 388 530 357 544 318 c 0
 553 288 554 249 544 212 c 0
 528 150 479 94 410 59 c 0
 345 26 272 8 178 2 c 0
 150 0 96 -1 86 1 c 0
 70 3 59 7 53 13 c 0
 47 19 51 28 66 33 c 0
 68 34 70 41 115 216 c 0
 146 343 159 398 158 399 c 0
 154 400 147 407 147 410 c 0
 147 413 151 417 155 420 c 2
 162 423 l 1
 167 424 l 1
 212 606 l 1
 258 788 l 1
 253 790 l 2
 246 795 243 801 248 806 c 0
 252 811 265 816 279 818 c 0
377 778 m 0
 372 778 366 779 362 779 c 2
 357 780 l 1
 356 776 l 2
 353 764 269 431 269 430 c 0
 269 429 309 429 326 430 c 0
 367 433 404 444 436 465 c 0
 474 488 503 523 522 567 c 0
 527 580 535 600 538 614 c 0
 540 624 540 628 540 643 c 0
 540 656 540 660 538 668 c 0
 533 691 522 711 507 726 c 0
 481 752 433 772 377 778 c 0
340 390 m 0
 333 391 319 390 294 391 c 2
 259 391 l 1
 216 216 l 2
 192 120 172 41 172 40 c 0
 173 39 201 43 217 46 c 0
 257 52 290 63 325 80 c 0
 351 93 370 107 390 126 c 0
 427 164 448 207 451 259 c 0
 453 299 440 335 416 356 c 0
 397 374 372 385 340 390 c 0
EndSplineSet
EndChar

StartChar: C
Encoding: 67 67 34
Width: 546
VWidth: 910
Flags: HW
LayerCount: 2
Fore
SplineSet
457 824 m 0
 463 825 512 824 523 823 c 0
 578 818 617 806 645 785 c 0
 661 772 673 757 678 736 c 0
 680 729 680 727 680 714 c 0
 680 706 680 697 679 692 c 0
 678 685 678 684 674 680 c 0
 667 673 650 669 628 669 c 0
 612 669 601 670 591 674 c 0
 585 676 578 681 577 684 c 0
 577 686 578 692 579 697 c 0
 583 727 574 753 555 768 c 0
 538 781 517 786 488 786 c 2
 473 787 l 1
 465 784 l 2
 434 770 400 739 373 698 c 0
 343 652 319 603 296 538 c 0
 274 477 245 359 233 291 c 0
 226 250 224 221 224 186 c 0
 224 151 226 126 231 103 c 0
 240 70 258 44 276 34 c 0
 281 32 281 32 293 32 c 0
 325 34 345 39 370 51 c 0
 402 66 425 93 437 128 c 0
 440 135 440 137 442 139 c 0
 460 153 508 155 530 143 c 0
 540 138 541 134 536 120 c 0
 525 87 498 55 464 35 c 0
 428 14 382 1 324 -4 c 0
 306 -6 259 -6 248 -4 c 0
 196 3 164 25 144 66 c 0
 130 92 124 126 122 175 c 0
 121 235 130 298 155 400 c 0
 181 506 203 572 234 634 c 0
 252 670 274 707 293 732 c 0
 304 746 327 768 339 777 c 0
 372 803 406 818 445 823 c 0
 450 824 455 824 457 824 c 0
EndSplineSet
EndChar

StartChar: D
Encoding: 68 68 35
Width: 530
VWidth: 910
Flags: HW
LayerCount: 2
Fore
SplineSet
279 818 m 0
 287 819 315 819 330 818 c 0
 383 814 423 806 462 791 c 0
 549 756 599 691 611 594 c 0
 613 578 613 529 611 512 c 0
 607 471 599 432 587 389 c 0
 562 298 525 222 474 161 c 0
 462 147 436 120 422 108 c 0
 356 52 272 18 174 5 c 0
 142 1 101 -1 85 1 c 0
 50 6 39 22 65 32 c 2
 68 34 l 1
 163 411 l 1
 258 788 l 1
 253 790 l 2
 246 795 243 801 248 806 c 0
 252 811 265 816 279 818 c 0
369 772 m 0
 357 776 356 776 356 775 c 0
 354 771 173 46 174 46 c 0
 175 46 198 52 205 54 c 0
 220 59 242 68 259 76 c 0
 294 95 323 116 353 145 c 0
 414 207 459 288 487 394 c 0
 527 538 518 648 461 715 c 0
 439 741 406 762 369 772 c 0
EndSplineSet
EndChar

StartChar: E
Encoding: 69 69 36
Width: 530
VWidth: 910
Flags: HW
LayerCount: 2
Fore
SplineSet
279 818 m 0
 287 819 643 819 651 818 c 0
 666 816 678 811 683 806 c 0
 692 797 678 787 651 783 c 0
 646 782 587 782 501 782 c 2
 357 782 l 1
 313 606 l 2
 289 509 269 430 269 430 c 2
 269 429 327 429 397 429 c 0
 524 428 525 428 532 426 c 0
 565 418 565 402 532 394 c 0
 525 392 524 392 392 391 c 2
 259 391 l 1
 216 216 l 2
 192 120 172 40 171 39 c 0
 171 37 178 37 309 37 c 0
 393 37 450 37 455 36 c 0
 481 32 496 23 487 13 c 0
 483 8 470 3 455 1 c 0
 446 0 94 0 85 1 c 0
 50 6 39 22 65 32 c 2
 68 34 l 1
 114 215 l 2
 139 314 159 396 159 397 c 0
 159 398 159 399 157 400 c 0
 156 401 153 402 151 404 c 0
 145 409 147 416 159 421 c 0
 162 423 165 424 166 424 c 2
 166 424 185 499 212 606 c 2
 258 788 l 1
 253 790 l 2
 246 795 243 801 248 806 c 0
 252 811 265 816 279 818 c 0
EndSplineSet
EndChar

StartChar: F
Encoding: 70 70 37
Width: 530
VWidth: 910
Flags: HW
LayerCount: 2
Fore
SplineSet
279 818 m 0
 287 819 643 819 651 818 c 0
 666 816 678 811 683 806 c 0
 692 797 678 787 651 783 c 0
 646 782 587 782 501 782 c 2
 357 782 l 1
 313 606 l 2
 289 509 269 430 269 430 c 2
 269 429 327 429 397 429 c 0
 524 428 525 428 532 426 c 0
 565 418 565 402 532 394 c 0
 525 392 524 392 392 391 c 2
 259 391 l 1
 213 203 l 2
 160 -5 166 12 157 7 c 0
 129 -7 66 1 66 18 c 0
 66 20 87 105 113 208 c 0
 138 311 159 397 159 397 c 2
 159 398 159 399 157 400 c 0
 156 401 153 402 151 404 c 0
 145 409 147 416 159 421 c 0
 162 423 165 424 166 424 c 2
 166 424 185 499 212 606 c 2
 258 788 l 1
 253 790 l 2
 246 795 243 801 248 806 c 0
 252 811 265 816 279 818 c 0
EndSplineSet
EndChar

StartChar: G
Encoding: 71 71 38
Width: 546
VWidth: 910
Flags: HW
LayerCount: 2
Fore
SplineSet
457 824 m 0
 463 825 512 824 523 823 c 0
 578 818 617 806 645 785 c 0
 661 772 673 757 678 736 c 0
 680 729 680 727 680 714 c 0
 680 706 680 697 679 692 c 0
 678 685 678 684 674 680 c 0
 667 673 650 669 628 669 c 0
 612 669 601 670 591 674 c 0
 585 676 578 681 577 684 c 0
 577 686 578 692 579 697 c 0
 583 727 574 753 555 768 c 0
 538 781 517 786 488 786 c 2
 473 787 l 1
 465 784 l 2
 434 770 400 739 373 698 c 0
 343 652 319 603 296 538 c 0
 274 477 245 359 233 291 c 0
 226 250 224 221 224 186 c 0
 224 151 226 126 231 103 c 0
 240 70 258 44 276 34 c 0
 281 32 281 32 293 32 c 0
 325 34 345 39 370 51 c 0
 402 66 426 94 436 127 c 0
 438 132 502 389 502 391 c 2
 455 391 l 2
 411 392 407 392 400 394 c 0
 367 401 367 419 400 426 c 0
 407 428 411 428 487 429 c 0
 568 429 575 429 588 425 c 0
 599 422 606 417 608 412 c 0
 609 411 599 374 573 269 c 0
 554 192 538 125 536 120 c 0
 525 87 498 55 464 35 c 0
 428 14 382 1 324 -4 c 0
 306 -6 259 -6 248 -4 c 0
 196 3 164 25 144 66 c 0
 130 92 124 126 122 175 c 0
 121 235 130 298 155 400 c 0
 181 506 203 572 234 634 c 0
 252 670 274 707 293 732 c 0
 304 746 327 768 339 777 c 0
 372 803 406 818 445 823 c 0
 450 824 455 824 457 824 c 0
EndSplineSet
EndChar

StartChar: H
Encoding: 72 72 39
Width: 546
VWidth: 910
Flags: HW
LayerCount: 2
Fore
SplineSet
293 818 m 0
 303 820 327 819 337 816 c 0
 352 812 361 807 361 801 c 0
 361 799 342 720 318 624 c 0
 294 528 274 449 274 449 c 2
 274 448 324 448 385 448 c 2
 496 449 l 1
 541 626 l 2
 590 823 585 807 594 812 c 0
 622 826 685 818 685 801 c 0
 685 799 666 718 641 620 c 2
 596 441 l 2
 596 440 597 441 599 440 c 0
 603 438 608 433 608 430 c 0
 608 426 602 421 596 417 c 2
 590 414 l 1
 540 215 l 2
 491 19 490 15 487 12 c 0
 483 8 478 7 470 4 c 0
 438 -5 390 3 390 18 c 0
 390 20 484 400 487 409 c 0
 487 411 482 411 376 411 c 2
 264 411 l 1
 215 213 l 2
 167 19 166 15 163 12 c 0
 154 4 133 -1 110 0 c 0
 84 2 66 9 66 18 c 0
 66 20 89 110 115 219 c 2
 165 417 l 1
 160 419 l 2
 148 426 151 436 166 441 c 0
 171 443 171 444 172 447 c 0
 172 449 193 530 218 627 c 0
 257 787 261 804 264 806 c 0
 269 811 278 815 293 818 c 0
EndSplineSet
EndChar

StartChar: I
Encoding: 73 73 40
Width: 334
VWidth: 910
Flags: HW
LayerCount: 2
Fore
SplineSet
334 818 m 0
 345 820 398 819 407 817 c 0
 421 813 427 810 431 805 c 0
 434 801 434 800 431 796 c 0
 428 792 424 790 419 787 c 2
 414 786 l 1
 320 409 l 2
 268 201 226 32 226 31 c 2
 226 31 226 30 228 29 c 0
 232 27 238 22 238 19 c 0
 238 15 233 10 228 7 c 0
 222 4 212 2 202 1 c 0
 189 -1 141 0 132 2 c 0
 118 6 111 10 107 15 c 0
 104 19 104 19 107 23 c 0
 110 27 115 29 120 32 c 2
 125 33 l 1
 218 411 l 2
 270 619 313 787 313 788 c 2
 313 788 312 789 310 790 c 0
 306 792 301 797 301 800 c 0
 301 802 302 804 304 806 c 0
 309 811 319 815 334 818 c 0
EndSplineSet
EndChar

StartChar: J
Encoding: 74 74 41
Width: 455
VWidth: 910
Flags: HW
LayerCount: 2
Fore
SplineSet
512 818 m 0
 520 819 567 819 575 818 c 0
 596 815 610 808 610 801 c 0
 610 796 603 790 593 786 c 0
 591 785 588 775 518 491 c 0
 477 329 443 190 440 182 c 0
 428 141 412 110 391 82 c 0
 381 68 361 48 350 41 c 0
 321 20 290 7 251 2 c 0
 236 0 200 0 185 2 c 0
 147 7 118 20 100 40 c 0
 85 55 78 72 73 98 c 0
 71 112 71 145 74 164 c 0
 76 178 81 205 83 211 c 0
 86 219 98 225 118 228 c 0
 151 232 186 223 184 210 c 0
 184 208 182 200 180 192 c 0
 174 165 173 150 173 128 c 0
 173 101 176 86 184 69 c 0
 190 55 202 44 213 39 c 0
 218 37 218 37 223 38 c 0
 239 43 261 56 276 71 c 0
 303 98 324 134 339 183 c 0
 341 188 375 328 416 491 c 2
 491 788 l 1
 486 790 l 2
 479 795 477 801 482 806 c 0
 486 811 498 816 512 818 c 0
EndSplineSet
EndChar

StartChar: K
Encoding: 75 75 42
Width: 530
VWidth: 910
Flags: HW
LayerCount: 2
Fore
SplineSet
293 818 m 0
 303 820 327 819 337 816 c 0
 352 812 361 807 361 801 c 0
 361 799 347 739 329 667 c 0
 296 537 296 537 299 540 c 0
 301 541 367 602 446 675 c 0
 542 764 591 810 594 811 c 0
 618 824 668 821 683 806 c 0
 687 802 687 800 684 796 c 0
 683 794 623 738 551 672 c 0
 478 606 418 549 416 547 c 2
 412 543 l 1
 451 282 l 2
 473 139 490 20 490 18 c 0
 490 5 453 -4 421 1 c 0
 400 5 391 10 389 20 c 0
 388 23 373 122 356 240 c 0
 339 358 324 457 323 458 c 0
 322 461 322 460 293 433 c 2
 263 406 l 1
 215 210 l 2
 160 -7 166 12 157 7 c 0
 129 -7 66 1 66 18 c 0
 66 20 109 197 164 412 c 0
 252 768 261 804 264 806 c 0
 269 811 278 815 293 818 c 0
EndSplineSet
EndChar

StartChar: L
Encoding: 76 76 43
Width: 516
VWidth: 910
Flags: HW
LayerCount: 2
Fore
SplineSet
293 818 m 0
 303 820 327 819 337 816 c 0
 352 812 361 807 361 801 c 0
 361 799 174 48 171 39 c 0
 171 37 178 37 310 37 c 0
 457 37 457 38 471 33 c 0
 482 30 491 23 491 18 c 0
 491 13 482 8 471 5 c 0
 457 0 459 0 270 0 c 0
 161 0 90 0 85 1 c 0
 64 4 50 11 50 19 c 0
 50 24 56 29 66 33 c 0
 68 34 72 48 165 419 c 0
 260 798 261 804 264 807 c 0
 269 812 278 815 293 818 c 0
EndSplineSet
EndChar

StartChar: M
Encoding: 77 77 44
Width: 789
VWidth: 910
Flags: HW
LayerCount: 2
Fore
SplineSet
293 818 m 0
 298 818 305 819 315 819 c 0
 342 818 360 811 361 800 c 0
 362 798 379 656 399 485 c 0
 420 313 436 172 436 171 c 0
 436 170 526 312 633 488 c 0
 741 663 831 806 832 807 c 0
 851 825 928 821 928 801 c 0
 928 799 885 622 830 407 c 0
 742 51 733 15 730 13 c 0
 723 5 700 -1 677 0 c 0
 652 2 633 9 633 18 c 0
 633 20 660 133 695 270 c 0
 729 407 757 520 757 521 c 2
 757 521 688 410 604 274 c 0
 520 138 451 26 450 24 c 0
 439 12 395 8 369 16 c 0
 360 19 353 24 352 29 c 0
 351 30 338 141 322 276 c 0
 307 410 294 521 293 522 c 0
 293 523 266 418 229 269 c 0
 166 20 166 15 163 12 c 0
 159 8 154 7 146 4 c 0
 114 -5 66 3 66 18 c 0
 66 20 109 197 164 412 c 0
 252 768 261 804 264 806 c 0
 269 811 278 815 293 818 c 0
EndSplineSet
EndChar

StartChar: N
Encoding: 78 78 45
Width: 546
VWidth: 910
Flags: HW
LayerCount: 2
Fore
SplineSet
293 818 m 0
 303 819 327 819 337 816 c 0
 352 813 359 808 361 802 c 0
 362 800 382 679 406 532 c 0
 430 385 450 266 450 265 c 0
 450 264 481 385 518 534 c 0
 579 779 585 804 588 806 c 0
 595 814 618 820 641 819 c 0
 666 817 685 810 685 801 c 0
 685 799 642 622 587 407 c 0
 499 51 490 15 487 13 c 0
 470 -6 395 -3 390 17 c 0
 389 19 369 140 345 287 c 0
 321 434 301 553 301 554 c 0
 301 555 270 434 233 286 c 0
 172 40 166 15 163 13 c 0
 156 5 133 -1 110 0 c 0
 85 2 66 9 66 18 c 0
 66 20 109 197 164 412 c 0
 252 768 261 804 264 806 c 0
 269 811 278 815 293 818 c 0
EndSplineSet
EndChar

StartChar: O
Encoding: 79 79 46
Width: 698
VWidth: 910
Flags: HW
LayerCount: 2
Fore
SplineSet
523 824 m 0
 539 825 578 824 594 822 c 0
 641 816 679 802 710 779 c 0
 753 747 777 700 786 630 c 0
 788 614 788 564 786 546 c 0
 781 492 768 434 750 368 c 0
 716 250 669 162 605 97 c 0
 559 51 505 21 441 5 c 0
 410 -2 387 -5 352 -5 c 0
 328 -5 322 -5 309 -3 c 0
 260 3 225 17 194 40 c 0
 150 72 126 119 117 189 c 0
 115 205 115 255 117 274 c 0
 122 327 135 385 153 452 c 0
 187 569 234 657 298 722 c 0
 359 782 435 817 523 824 c 0
566 786 m 0
 548 790 527 786 502 777 c 0
 476 769 450 755 425 736 c 0
 399 716 380 697 355 664 c 0
 305 598 270 517 242 402 c 0
 212 282 209 201 231 134 c 0
 241 104 255 81 275 65 c 0
 300 43 330 31 357 32 c 0
 393 34 439 53 478 83 c 0
 504 103 523 122 548 156 c 0
 598 222 633 302 661 418 c 0
 687 524 693 597 679 662 c 0
 674 686 663 712 653 727 c 0
 632 758 600 781 566 786 c 0
EndSplineSet
EndChar

StartChar: P
Encoding: 80 80 47
Width: 530
VWidth: 910
Flags: HW
LayerCount: 2
Fore
SplineSet
279 818 m 0
 286 819 348 818 367 817 c 0
 458 811 522 794 573 765 c 0
 588 756 596 749 608 738 c 0
 677 668 653 554 553 478 c 0
 538 467 526 460 505 450 c 0
 443 418 366 399 281 394 c 0
 271 393 263 393 262 392 c 0
 260 392 255 372 213 204 c 0
 167 19 166 15 163 12 c 0
 154 4 133 -1 110 0 c 0
 85 2 66 9 66 18 c 0
 66 19 87 105 113 209 c 0
 146 340 159 398 158 399 c 0
 154 400 147 407 147 410 c 0
 147 413 151 417 155 420 c 2
 162 423 l 1
 167 424 l 1
 212 606 l 1
 258 788 l 1
 253 790 l 1
 236 801 248 813 279 818 c 0
373 778 m 0
 366 779 359 780 358 780 c 2
 356 776 l 2
 356 774 336 697 312 603 c 0
 270 433 269 431 272 431 c 0
 277 431 301 434 316 437 c 0
 344 442 373 450 399 460 c 0
 414 466 439 479 451 486 c 0
 531 541 566 627 534 694 c 0
 521 719 503 739 472 754 c 0
 445 767 412 774 373 778 c 0
EndSplineSet
EndChar

StartChar: Q
Encoding: 81 81 48
Width: 698
VWidth: 910
Flags: HW
LayerCount: 2
Fore
SplineSet
523 824 m 0
 539 825 578 824 594 822 c 0
 641 816 679 802 710 779 c 0
 753 747 777 700 786 630 c 0
 788 614 788 564 786 546 c 0
 782 502 775 467 762 414 c 0
 744 338 724 285 699 234 c 0
 677 188 651 148 617 110 c 2
 612 105 l 1
 627 62 l 2
 638 33 643 19 642 17 c 0
 640 6 614 -1 586 0 c 0
 567 1 549 7 544 12 c 0
 543 14 541 20 539 25 c 0
 537 30 534 35 533 38 c 2
 532 42 l 1
 516 34 l 2
 476 14 439 2 392 -4 c 0
 383 -5 372 -5 352 -5 c 0
 328 -5 322 -5 309 -3 c 0
 260 3 225 17 194 40 c 0
 150 72 126 119 117 189 c 0
 115 205 115 255 117 274 c 0
 122 327 135 385 153 452 c 0
 187 569 234 657 298 722 c 0
 359 782 435 817 523 824 c 0
566 786 m 0
 548 790 527 786 502 777 c 0
 476 769 450 755 425 736 c 0
 399 716 380 697 355 664 c 0
 305 598 270 517 242 402 c 0
 212 282 209 201 231 134 c 0
 241 104 255 81 275 65 c 0
 300 43 330 31 357 32 c 0
 400 35 455 61 500 100 c 2
 509 108 l 1
 493 151 l 2
 482 182 478 195 478 197 c 0
 480 202 489 206 502 210 c 0
 512 213 534 214 545 212 c 0
 559 210 570 206 575 201 c 0
 577 200 578 199 578 199 c 2
 579 199 581 206 586 213 c 0
 616 268 641 333 661 418 c 0
 687 524 693 597 679 662 c 0
 674 686 663 712 653 727 c 0
 632 758 600 781 566 786 c 0
EndSplineSet
EndChar

StartChar: R
Encoding: 82 82 49
Width: 546
VWidth: 910
Flags: HW
LayerCount: 2
Fore
SplineSet
279 818 m 0
 286 819 351 818 370 817 c 0
 456 812 518 798 569 773 c 0
 594 760 607 750 622 735 c 0
 647 710 660 680 662 645 c 0
 665 570 606 492 515 449 c 0
 475 430 429 415 380 406 c 0
 370 404 361 402 361 402 c 1
 361 402 394 317 435 213 c 0
 476 108 510 22 511 19 c 0
 511 14 508 11 501 7 c 0
 476 -5 426 -2 413 13 c 0
 411 15 391 67 337 204 c 0
 292 316 262 392 261 392 c 0
 260 392 248 346 213 204 c 0
 167 19 166 15 163 12 c 0
 154 4 133 -1 110 0 c 0
 85 2 66 9 66 18 c 0
 66 19 87 105 113 209 c 0
 146 340 159 398 158 399 c 0
 154 400 147 407 147 410 c 0
 147 413 151 417 155 420 c 2
 162 423 l 1
 167 424 l 1
 212 606 l 1
 258 788 l 1
 253 790 l 1
 236 801 248 813 279 818 c 0
378 778 m 0
 357 781 357 781 356 776 c 0
 356 774 336 697 313 603 c 0
 289 509 270 433 269 432 c 0
 269 430 270 430 273 431 c 0
 275 431 283 432 291 433 c 0
 325 436 360 443 391 453 c 0
 428 466 457 481 482 500 c 0
 565 564 585 660 529 721 c 0
 519 732 505 742 484 752 c 0
 455 767 421 774 378 778 c 0
EndSplineSet
EndChar

StartChar: S
Encoding: 83 83 50
Width: 546
VWidth: 910
Flags: HW
LayerCount: 2
Fore
SplineSet
448 824 m 0
 472 826 507 825 533 821 c 0
 580 815 614 801 636 778 c 0
 654 760 662 738 661 711 c 0
 660 695 658 685 654 681 c 0
 647 674 629 669 608 669 c 0
 582 669 562 675 557 684 c 0
 556 687 556 688 558 694 c 0
 563 724 557 750 541 765 c 0
 532 774 522 781 509 784 c 0
 500 787 484 787 472 787 c 0
 447 785 420 775 395 757 c 0
 380 744 360 723 346 702 c 0
 331 677 314 635 307 602 c 0
 304 587 303 564 306 551 c 0
 316 507 344 473 405 429 c 0
 413 424 425 415 432 410 c 0
 482 375 517 337 532 302 c 0
 542 279 545 255 542 232 c 0
 541 221 535 197 530 180 c 0
 500 88 444 30 365 7 c 0
 337 -1 315 -4 284 -5 c 0
 219 -7 165 4 131 27 c 0
 120 34 107 47 102 57 c 0
 93 72 89 89 90 109 c 0
 91 124 92 134 96 138 c 0
 103 145 122 150 144 150 c 0
 169 150 189 145 194 136 c 0
 195 133 195 132 193 126 c 0
 188 96 194 69 210 54 c 0
 219 45 229 38 243 35 c 0
 255 31 276 31 288 33 c 0
 302 36 319 42 333 50 c 0
 382 79 418 134 437 211 c 0
 444 239 444 261 436 285 c 0
 423 324 393 358 332 400 c 0
 293 427 278 440 257 460 c 0
 238 480 225 496 216 516 c 0
 203 544 200 575 208 608 c 0
 217 653 236 696 261 728 c 0
 303 785 366 818 448 824 c 0
EndSplineSet
EndChar

StartChar: T
Encoding: 84 84 51
Width: 516
VWidth: 910
Flags: HW
LayerCount: 2
Fore
SplineSet
279 818 m 0
 287 819 628 819 636 818 c 0
 651 816 663 811 668 806 c 0
 677 797 663 787 636 783 c 0
 632 782 602 782 567 782 c 2
 504 782 l 1
 503 778 l 2
 503 776 460 604 408 396 c 0
 356 188 312 16 312 15 c 0
 311 14 310 11 307 10 c 0
 290 -2 244 -4 222 7 c 0
 217 10 212 15 212 18 c 2
 212 18 255 191 308 400 c 0
 360 609 402 780 402 781 c 0
 402 782 382 782 345 782 c 0
 313 782 284 782 280 783 c 0
 254 787 239 796 248 806 c 0
 252 811 265 816 279 818 c 0
EndSplineSet
EndChar

StartChar: U
Encoding: 85 85 52
Width: 546
VWidth: 910
Flags: HW
LayerCount: 2
Fore
SplineSet
293 818 m 0
 303 820 327 819 337 816 c 0
 352 812 361 807 361 801 c 0
 361 799 325 651 280 472 c 0
 214 207 199 145 197 135 c 0
 192 87 208 50 243 36 c 0
 263 29 296 31 321 39 c 0
 358 53 389 80 409 120 c 0
 413 127 418 140 420 146 c 0
 422 151 459 303 504 481 c 0
 578 774 585 804 588 806 c 0
 595 814 618 820 641 819 c 0
 666 817 685 810 685 801 c 0
 685 796 524 152 520 140 c 0
 513 119 502 99 490 82 c 0
 448 26 380 -2 286 -5 c 0
 199 -7 134 15 109 58 c 0
 100 73 96 89 95 111 c 0
 94 136 89 117 179 477 c 0
 254 774 261 804 264 806 c 0
 269 811 278 815 293 818 c 0
EndSplineSet
EndChar

StartChar: V
Encoding: 86 86 53
Width: 576
VWidth: 910
Flags: HW
LayerCount: 2
Fore
SplineSet
279 818 m 0
 289 819 305 819 314 818 c 0
 329 815 339 811 344 806 c 0
 346 803 346 804 346 795 c 0
 346 790 339 633 329 445 c 0
 320 257 312 103 312 101 c 0
 312 98 344 171 471 451 c 0
 573 677 632 804 633 806 c 0
 648 822 711 823 728 806 c 0
 731 803 731 803 731 800 c 0
 730 795 379 16 375 13 c 0
 370 8 361 4 346 1 c 0
 333 -1 252 -1 239 1 c 0
 224 4 215 8 210 13 c 0
 207 16 208 16 208 24 c 0
 208 37 245 789 246 797 c 0
 246 802 246 804 248 806 c 0
 252 811 265 816 279 818 c 0
EndSplineSet
EndChar

StartChar: W
Encoding: 87 87 54
Width: 819
VWidth: 910
Flags: HW
LayerCount: 2
Fore
SplineSet
279 818 m 0
 289 819 305 819 314 818 c 0
 329 815 339 811 344 806 c 0
 346 803 346 803 346 798 c 0
 346 795 331 642 314 456 c 0
 297 270 282 119 282 118 c 2
 282 118 343 266 418 447 c 0
 548 763 553 774 556 778 c 0
 559 779 562 782 565 783 c 0
 585 791 619 791 639 783 c 0
 645 780 653 775 653 771 c 0
 653 770 640 622 624 444 c 0
 609 265 595 119 595 118 c 2
 595 118 659 273 735 461 c 0
 836 710 874 803 876 806 c 0
 891 822 954 823 971 806 c 0
 974 803 974 803 974 800 c 0
 974 798 902 621 815 406 c 0
 701 124 656 15 654 13 c 0
 649 8 639 4 624 1 c 0
 611 -1 531 -1 518 1 c 0
 503 4 493 8 488 13 c 0
 486 15 485 17 485 17 c 2
 485 18 493 116 504 235 c 0
 515 354 523 452 523 452 c 2
 523 453 482 355 432 234 c 0
 359 56 343 15 340 12 c 0
 335 7 324 3 309 1 c 0
 297 -1 214 0 204 1 c 0
 187 4 176 8 173 15 c 0
 171 17 176 75 208 411 c 0
 228 627 246 804 247 805 c 0
 250 810 264 816 279 818 c 0
EndSplineSet
EndChar

StartChar: X
Encoding: 88 88 55
Width: 546
VWidth: 910
Flags: HW
LayerCount: 2
Fore
SplineSet
293 818 m 0
 303 819 327 819 337 816 c 0
 351 813 359 808 361 803 c 0
 361 801 372 742 385 672 c 0
 397 601 408 542 408 542 c 2
 408 541 448 601 497 673 c 0
 545 745 586 804 587 806 c 0
 595 814 617 820 641 819 c 0
 667 817 685 810 685 801 c 0
 685 798 662 763 558 609 c 0
 486 503 430 419 430 418 c 0
 430 416 445 326 464 217 c 0
 489 78 500 17 499 16 c 0
 495 6 469 -1 443 0 c 0
 418 2 402 8 399 16 c 0
 399 18 387 82 373 158 c 0
 360 234 349 298 349 298 c 2
 349 299 305 235 252 157 c 0
 199 80 156 14 154 13 c 0
 136 -7 54 -2 56 19 c 0
 56 22 86 65 192 222 c 0
 266 331 327 422 327 422 c 2
 327 423 312 508 294 611 c 0
 276 713 261 798 261 800 c 0
 260 808 272 814 293 818 c 0
EndSplineSet
EndChar

StartChar: Y
Encoding: 89 89 56
Width: 546
VWidth: 910
Flags: HW
LayerCount: 2
Fore
SplineSet
293 818 m 0
 303 819 327 819 337 816 c 0
 349 813 357 810 360 805 c 0
 361 804 372 745 385 675 c 0
 398 605 409 548 409 548 c 2
 409 547 449 604 497 675 c 0
 545 745 586 804 587 806 c 0
 600 820 649 824 674 812 c 0
 682 808 685 805 685 800 c 0
 685 797 658 758 558 612 c 2
 431 426 l 1
 379 220 l 2
 323 -8 328 12 319 7 c 0
 291 -7 228 1 228 18 c 0
 228 20 251 113 279 225 c 2
 330 429 l 1
 295 613 l 2
 277 715 261 798 261 800 c 0
 260 808 272 814 293 818 c 0
EndSplineSet
EndChar

StartChar: Z
Encoding: 90 90 57
Width: 516
VWidth: 910
Flags: HW
LayerCount: 2
Fore
SplineSet
279 818 m 0
 287 819 628 819 636 818 c 0
 656 815 671 808 671 801 c 0
 671 799 614 712 419 419 c 0
 280 210 166 38 166 38 c 2
 166 37 225 37 299 37 c 0
 379 37 436 37 441 36 c 0
 467 32 481 23 472 13 c 0
 468 8 456 3 441 1 c 0
 432 0 94 0 85 1 c 0
 65 4 50 11 50 18 c 0
 50 20 107 107 303 400 c 0
 441 609 555 781 555 781 c 2
 555 782 495 782 421 782 c 0
 341 782 285 782 280 783 c 0
 254 787 239 796 248 806 c 0
 252 811 265 816 279 818 c 0
EndSplineSet
EndChar

StartChar: bracketleft
Encoding: 91 91 58
Width: 243
VWidth: 910
Flags: HW
LayerCount: 2
Fore
SplineSet
270 848 m 0
 278 849 376 849 386 848 c 0
 420 843 432 829 410 819 c 0
 398 814 386 812 357 812 c 2
 335 812 l 1
 234 410 l 1
 133 7 l 1
 151 7 l 2
 181 7 199 4 207 -5 c 0
 214 -12 207 -20 191 -25 c 0
 179 -29 171 -30 119 -30 c 0
 69 -30 61 -30 49 -26 c 0
 37 -23 27 -18 27 -13 c 0
 27 -11 75 180 133 412 c 0
 229 792 238 834 241 836 c 0
 246 841 255 845 270 848 c 0
EndSplineSet
EndChar

StartChar: backslash
Encoding: 92 92 59
Width: 425
VWidth: 910
Flags: HW
LayerCount: 2
Fore
SplineSet
263 818 m 0
 272 819 296 819 305 817 c 0
 318 813 327 810 330 805 c 0
 331 803 344 654 366 411 c 0
 384 196 400 18 400 18 c 2
 400 15 395 10 390 7 c 0
 368 -4 322 -2 305 10 c 0
 302 11 300 14 299 15 c 0
 298 17 286 166 264 409 c 0
 246 624 230 801 230 801 c 2
 230 804 235 809 240 811 c 0
 245 814 253 816 263 818 c 0
EndSplineSet
EndChar

StartChar: bracketright
Encoding: 93 93 60
Width: 243
VWidth: 910
Flags: HW
LayerCount: 2
Fore
SplineSet
270 848 m 0
 278 849 376 849 386 848 c 0
 401 846 413 841 418 836 c 0
 420 834 421 833 421 832 c 0
 421 830 373 639 315 407 c 0
 219 27 210 -15 207 -17 c 0
 202 -22 192 -26 177 -29 c 0
 171 -30 158 -30 119 -30 c 0
 91 -30 66 -30 62 -29 c 0
 28 -24 16 -10 38 0 c 0
 50 5 62 7 91 7 c 2
 114 7 l 1
 214 410 l 1
 315 812 l 1
 297 812 l 2
 273 812 259 815 248 820 c 0
 229 829 239 843 270 848 c 0
EndSplineSet
EndChar

StartChar: asciicircum
Encoding: 94 94 61
Width: 303
VWidth: 910
Flags: HW
LayerCount: 2
Fore
SplineSet
335 818 m 0
 345 819 361 819 370 818 c 0
 385 815 395 811 400 806 c 0
 405 801 454 732 455 729 c 0
 456 724 448 718 438 714 c 0
 418 709 386 708 369 715 c 0
 361 718 358 721 348 734 c 0
 344 740 340 745 340 745 c 2
 340 746 332 739 323 732 c 0
 300 713 294 711 268 710 c 0
 251 710 240 711 230 714 c 0
 223 717 216 721 214 725 c 0
 212 729 212 728 213 731 c 0
 215 735 306 809 312 812 c 0
 317 815 327 817 335 818 c 0
EndSplineSet
EndChar

StartChar: underscore
Encoding: 95 95 62
Width: 546
VWidth: 910
Flags: HW
LayerCount: 2
Fore
SplineSet
29 -1 m 0
 33 -1 140 0 268 0 c 0
 516 0 507 0 522 -5 c 0
 533 -8 542 -13 542 -18 c 0
 542 -23 533 -30 522 -33 c 0
 507 -38 516 -37 269 -37 c 0
 126 -37 35 -37 30 -36 c 0
 9 -33 -5 -26 -5 -18 c 0
 -5 -11 10 -4 29 -1 c 0
EndSplineSet
EndChar

StartChar: a
Encoding: 97 97 63
Width: 516
VWidth: 910
Flags: HW
LayerCount: 2
Fore
SplineSet
387 619 m 0
 423 623 469 616 498 605 c 0
 506 601 506 601 508 603 c 0
 520 613 557 617 583 611 c 0
 595 608 604 601 604 596 c 0
 604 595 572 464 532 305 c 0
 466 42 460 15 457 13 c 0
 442 -2 385 -5 365 10 c 2
 362 12 l 1
 356 9 l 2
 332 1 302 -4 271 -5 c 0
 219 -7 177 6 150 31 c 0
 124 56 111 93 109 149 c 0
 108 194 116 245 134 318 c 0
 154 394 173 444 201 491 c 0
 217 518 231 535 249 554 c 0
 288 592 333 614 387 619 c 0
417 582 m 0
 411 583 409 583 401 580 c 0
 382 573 363 560 344 542 c 0
 312 509 282 459 260 397 c 0
 243 350 224 278 217 226 c 0
 212 198 211 185 211 160 c 0
 210 134 211 125 216 105 c 0
 222 70 237 47 259 35 c 0
 264 32 264 32 270 33 c 0
 296 38 326 54 347 78 c 0
 369 103 383 129 395 168 c 0
 400 183 463 434 466 451 c 0
 475 498 470 538 450 561 c 0
 443 571 429 579 417 582 c 0
EndSplineSet
EndChar

StartChar: b
Encoding: 98 98 64
Width: 516
VWidth: 910
Flags: HW
LayerCount: 2
Fore
SplineSet
293 818 m 0
 303 820 327 819 337 816 c 0
 352 812 361 807 361 801 c 0
 361 799 352 759 340 711 c 0
 328 663 318 624 318 623 c 2
 318 623 324 624 330 626 c 0
 387 644 453 643 496 622 c 0
 522 608 543 583 553 553 c 0
 557 543 561 523 563 510 c 0
 566 485 565 450 561 419 c 0
 553 357 527 255 504 198 c 0
 482 143 452 95 422 63 c 0
 387 28 347 5 301 -2 c 0
 259 -9 209 -5 174 9 c 0
 164 14 164 14 162 12 c 0
 160 9 153 6 146 4 c 0
 114 -5 66 3 66 18 c 0
 66 20 109 197 164 412 c 0
 252 768 261 804 264 806 c 0
 269 811 278 815 293 818 c 0
418 597 m 0
 412 602 409 602 401 600 c 0
 379 595 358 581 339 562 c 0
 312 535 291 499 276 451 c 0
 271 434 210 193 206 172 c 0
 201 152 201 143 201 125 c 0
 201 100 204 84 213 67 c 0
 220 52 228 44 242 37 c 0
 252 32 258 31 264 33 c 0
 282 38 310 57 328 76 c 0
 356 106 383 153 404 204 c 0
 427 261 452 359 460 421 c 0
 467 480 462 532 447 563 c 0
 439 578 429 591 418 597 c 0
EndSplineSet
EndChar

StartChar: c
Encoding: 99 99 65
Width: 516
VWidth: 910
Flags: HW
LayerCount: 2
Fore
SplineSet
383 619 m 0
 397 620 441 620 459 618 c 0
 525 611 568 589 582 556 c 0
 588 539 587 512 580 505 c 0
 560 489 494 492 484 510 c 0
 482 512 482 513 483 519 c 0
 488 536 482 554 471 565 c 0
 462 574 449 580 430 582 c 0
 410 584 401 582 383 572 c 0
 364 561 342 540 328 522 c 0
 284 466 254 397 229 292 c 0
 215 235 211 199 211 160 c 0
 210 134 211 125 216 105 c 0
 222 70 237 47 259 35 c 2
 264 32 l 1
 276 32 l 2
 303 34 324 40 342 52 c 0
 359 63 373 80 379 98 c 0
 380 102 381 105 383 107 c 0
 390 116 420 122 445 119 c 0
 467 116 481 109 481 102 c 0
 481 94 472 77 462 64 c 0
 429 19 360 -5 267 -5 c 0
 215 -5 176 6 150 31 c 0
 124 56 111 93 109 149 c 0
 108 194 116 245 134 318 c 0
 154 394 173 443 201 491 c 0
 217 518 231 535 249 554 c 0
 287 592 329 613 383 619 c 0
EndSplineSet
EndChar

StartChar: d
Encoding: 100 100 66
Width: 516
VWidth: 910
Flags: HW
LayerCount: 2
Fore
SplineSet
587 818 m 0
 597 820 621 819 631 816 c 0
 646 812 655 807 655 801 c 0
 655 799 612 622 557 407 c 0
 469 51 460 15 457 13 c 0
 443 -2 385 -5 365 10 c 2
 362 12 l 1
 352 8 l 2
 307 -7 252 -9 213 0 c 0
 169 10 140 36 125 76 c 0
 122 85 118 106 116 121 c 0
 114 137 114 180 117 200 c 0
 121 232 126 260 137 305 c 0
 161 399 183 456 219 511 c 0
 232 531 241 542 256 557 c 0
 287 586 318 604 357 613 c 0
 400 624 457 620 496 605 c 0
 501 603 504 603 505 603 c 2
 505 603 516 648 531 704 c 0
 553 794 555 804 558 806 c 0
 563 811 572 815 587 818 c 0
417 582 m 0
 412 583 411 583 406 581 c 0
 388 576 363 558 347 540 c 0
 318 510 291 464 270 411 c 0
 248 354 225 260 218 198 c 0
 215 178 215 138 217 123 c 0
 222 85 231 61 248 44 c 0
 252 41 256 37 260 35 c 2
 266 32 l 1
 273 34 l 2
 298 39 327 55 347 78 c 0
 369 103 383 129 395 168 c 0
 400 183 463 434 466 451 c 0
 475 498 470 538 450 561 c 0
 443 571 429 579 417 582 c 0
EndSplineSet
EndChar

StartChar: e
Encoding: 101 101 67
Width: 500
VWidth: 910
Flags: HW
LayerCount: 2
Fore
SplineSet
380 619 m 0
 405 622 438 618 461 611 c 0
 495 601 519 576 531 542 c 0
 535 532 537 517 540 502 c 0
 542 483 542 442 539 419 c 0
 535 389 530 357 521 320 c 0
 517 306 516 303 513 301 c 0
 508 296 499 292 484 289 c 0
 477 288 455 289 352 289 c 2
 228 289 l 1
 227 279 l 2
 215 229 210 192 210 155 c 0
 210 115 215 89 226 67 c 0
 232 52 241 42 252 35 c 2
 259 32 l 1
 269 32 l 2
 288 34 303 38 318 46 c 0
 339 56 356 76 363 98 c 0
 364 102 366 105 368 107 c 0
 375 116 405 122 430 119 c 0
 452 116 465 109 465 102 c 0
 465 95 457 77 449 65 c 0
 427 34 389 13 336 2 c 0
 301 -5 250 -8 222 -4 c 0
 175 3 143 25 126 62 c 0
 119 76 113 96 110 119 c 0
 108 132 108 175 110 190 c 0
 113 217 120 254 126 282 c 0
 128 288 128 294 128 294 c 2
 128 295 128 296 126 297 c 0
 122 299 117 304 117 307 c 0
 117 311 122 316 127 319 c 0
 131 321 134 321 135 321 c 2
 135 321 136 327 138 333 c 0
 164 433 203 510 250 557 c 0
 287 594 328 614 380 619 c 0
405 576 m 0
 402 579 399 581 398 581 c 2
 398 581 392 578 386 575 c 0
 334 549 288 479 255 383 c 0
 249 364 238 330 238 327 c 0
 238 326 254 326 330 326 c 2
 421 326 l 1
 421 332 l 2
 429 367 435 395 438 421 c 0
 441 443 441 483 439 500 c 0
 434 537 423 561 405 576 c 0
EndSplineSet
EndChar

StartChar: f
Encoding: 102 102 68
Width: 379
VWidth: 910
Flags: HW
LayerCount: 2
Fore
SplineSet
392 824 m 0
 403 825 435 824 445 823 c 0
 495 815 524 792 533 755 c 0
 540 730 539 705 531 664 c 0
 528 653 525 649 517 645 c 0
 507 640 496 639 479 639 c 0
 458 638 445 641 434 648 c 0
 427 653 427 653 431 673 c 0
 436 695 436 700 437 715 c 0
 438 742 433 764 421 778 c 0
 418 780 415 783 413 784 c 0
 410 786 410 786 405 783 c 0
 374 767 349 732 333 681 c 0
 329 671 274 451 274 449 c 0
 274 448 297 448 324 448 c 0
 370 447 374 447 381 445 c 0
 414 438 414 420 381 413 c 0
 374 411 372 412 319 411 c 2
 264 411 l 1
 217 220 l 1
 169 31 l 1
 174 29 l 1
 191 18 178 5 147 1 c 0
 138 0 94 0 85 1 c 0
 50 6 39 22 65 32 c 2
 68 34 l 1
 117 225 l 1
 165 417 l 1
 160 419 l 2
 148 426 151 436 166 441 c 0
 171 443 171 444 172 447 c 0
 172 449 186 501 201 562 c 0
 232 689 235 700 248 725 c 0
 278 785 325 817 392 824 c 0
EndSplineSet
EndChar

StartChar: g
Encoding: 103 103 69
Width: 516
VWidth: 910
Flags: HW
LayerCount: 2
Fore
SplineSet
383 619 m 0
 390 620 402 620 420 620 c 0
 455 619 478 616 503 610 c 2
 513 607 l 1
 521 610 l 2
 542 617 575 615 593 607 c 0
 598 604 604 600 604 596 c 0
 604 593 432 -97 430 -103 c 0
 423 -122 409 -141 394 -156 c 0
 366 -181 325 -199 276 -206 c 0
 255 -209 246 -209 221 -210 c 0
 164 -211 119 -204 86 -188 c 0
 50 -171 33 -143 35 -107 c 0
 36 -93 38 -87 41 -83 c 0
 45 -80 53 -76 62 -74 c 0
 68 -72 72 -72 89 -72 c 0
 105 -72 110 -72 116 -74 c 0
 126 -76 134 -80 137 -84 c 0
 140 -88 139 -86 137 -98 c 0
 132 -135 148 -162 181 -170 c 0
 188 -172 191 -172 210 -172 c 0
 226 -172 234 -172 240 -171 c 0
 265 -166 286 -155 302 -139 c 0
 314 -127 324 -113 330 -97 c 0
 331 -93 355 1 355 3 c 0
 355 4 352 3 347 2 c 0
 319 -4 268 -8 240 -5 c 0
 202 -1 171 11 150 31 c 0
 124 56 111 93 109 149 c 0
 108 194 116 245 134 318 c 0
 154 394 173 443 201 491 c 0
 217 518 231 535 249 554 c 0
 287 592 329 613 383 619 c 0
431 582 m 0
 416 584 408 583 401 580 c 0
 382 573 363 560 344 542 c 0
 312 509 282 459 260 397 c 0
 243 350 224 278 217 226 c 0
 212 198 211 185 211 160 c 0
 210 134 211 125 216 105 c 0
 222 70 237 47 259 35 c 2
 264 32 l 1
 276 32 l 2
 303 34 324 40 342 52 c 0
 359 63 373 80 379 98 c 0
 380 102 404 197 432 312 c 0
 472 470 484 522 485 528 c 0
 486 542 480 556 471 565 c 0
 462 574 448 580 431 582 c 0
EndSplineSet
EndChar

StartChar: h
Encoding: 104 104 70
Width: 516
VWidth: 910
Flags: HW
LayerCount: 2
Fore
SplineSet
293 818 m 0
 303 820 327 819 337 816 c 0
 352 812 361 807 361 801 c 0
 361 799 352 756 338 705 c 0
 325 654 315 613 315 612 c 1
 316 612 321 612 326 613 c 0
 348 617 377 620 403 620 c 0
 472 620 516 598 539 552 c 0
 546 538 551 518 554 494 c 0
 556 478 556 435 553 415 c 0
 548 371 546 361 499 174 c 0
 455 -2 460 12 451 7 c 0
 423 -7 360 1 360 18 c 0
 360 20 377 91 399 177 c 0
 445 362 447 373 452 417 c 0
 455 437 455 477 453 492 c 0
 448 532 436 559 417 574 c 0
 407 582 405 583 392 583 c 0
 370 581 354 577 337 569 c 0
 315 558 298 539 291 517 c 0
 290 513 262 400 228 263 c 0
 172 38 166 15 163 13 c 0
 156 5 133 -1 110 0 c 0
 85 2 66 9 66 18 c 0
 66 20 109 197 164 412 c 0
 252 768 261 804 264 806 c 0
 269 811 278 815 293 818 c 0
EndSplineSet
EndChar

StartChar: i
Encoding: 105 105 71
Width: 273
VWidth: 910
Flags: HW
LayerCount: 2
Fore
SplineSet
299 735 m 0
 308 736 332 735 341 733 c 0
 374 726 374 708 341 701 c 0
 334 699 330 699 316 699 c 0
 301 699 296 699 289 701 c 0
 274 705 265 710 265 717 c 0
 265 724 277 732 299 735 c 0
252 613 m 0
 262 614 308 614 319 613 c 0
 334 610 344 607 349 602 c 0
 353 597 353 595 349 590 c 0
 346 587 336 582 333 582 c 2
 333 582 301 458 264 307 c 2
 195 31 l 1
 199 29 l 1
 216 18 203 5 172 1 c 0
 163 0 119 0 110 1 c 0
 75 6 64 22 90 32 c 2
 94 34 l 1
 163 308 l 2
 200 458 231 582 231 583 c 0
 231 584 230 584 229 585 c 0
 224 586 218 593 220 597 c 0
 222 604 234 609 252 613 c 0
EndSplineSet
EndChar

StartChar: j
Encoding: 106 106 72
Width: 364
VWidth: 910
Flags: HW
LayerCount: 2
Fore
SplineSet
416 735 m 0
 425 736 449 735 458 733 c 0
 491 726 491 708 458 701 c 0
 451 699 446 699 432 699 c 0
 417 699 413 699 406 701 c 0
 391 705 381 710 381 717 c 0
 381 724 394 732 416 735 c 0
369 613 m 0
 379 614 424 614 435 613 c 0
 450 610 460 607 465 602 c 0
 469 597 469 595 465 590 c 0
 462 587 453 582 450 582 c 2
 450 582 416 450 376 289 c 0
 336 128 301 -12 298 -22 c 0
 287 -63 275 -93 258 -121 c 0
 231 -166 197 -192 154 -204 c 0
 127 -211 93 -212 66 -207 c 0
 25 -199 -1 -177 -10 -142 c 0
 -15 -125 -15 -119 -15 -96 c 0
 -15 -73 -13 -59 -8 -34 c 0
 -1 1 0 4 9 9 c 0
 37 23 100 15 100 -2 c 0
 100 -4 99 -9 98 -14 c 0
 94 -29 90 -48 88 -63 c 0
 85 -79 85 -110 87 -122 c 0
 90 -141 96 -156 104 -165 c 2
 107 -168 l 1
 115 -163 l 2
 149 -140 178 -89 197 -22 c 0
 202 -7 348 581 348 583 c 0
 348 584 347 584 346 585 c 0
 341 586 335 593 337 597 c 0
 339 604 351 609 369 613 c 0
EndSplineSet
EndChar

StartChar: k
Encoding: 107 107 73
Width: 485
VWidth: 910
Flags: HW
LayerCount: 2
Fore
SplineSet
293 818 m 0
 303 820 327 819 337 816 c 0
 352 812 361 807 361 801 c 0
 361 799 340 713 314 609 c 0
 288 504 267 420 267 419 c 2
 267 419 322 466 390 522 c 0
 470 588 515 624 519 626 c 0
 545 638 601 633 608 617 c 0
 609 614 609 615 607 611 c 0
 606 609 568 577 479 502 c 0
 409 444 351 396 351 396 c 2
 351 395 375 310 405 208 c 0
 435 106 459 21 460 19 c 0
 460 15 456 11 450 7 c 0
 428 -4 382 -2 365 10 c 0
 362 11 361 14 360 15 c 0
 360 16 339 86 314 172 c 0
 289 257 269 327 269 327 c 2
 268 328 239 304 238 301 c 0
 237 300 220 235 201 157 c 0
 162 0 166 12 157 7 c 0
 129 -7 66 1 66 18 c 0
 66 20 109 197 164 412 c 0
 252 768 261 804 264 806 c 0
 269 811 278 815 293 818 c 0
EndSplineSet
EndChar

StartChar: l
Encoding: 108 108 74
Width: 273
VWidth: 910
Flags: HW
LayerCount: 2
Fore
SplineSet
319 818 m 0
 329 820 352 819 362 816 c 0
 377 812 387 807 387 801 c 0
 387 799 344 622 289 407 c 0
 201 51 191 15 188 13 c 0
 181 5 159 -1 136 0 c 0
 111 2 91 9 91 18 c 0
 91 20 134 197 189 412 c 0
 277 768 286 804 289 806 c 0
 294 811 304 815 319 818 c 0
EndSplineSet
EndChar

StartChar: m
Encoding: 109 109 75
Width: 728
VWidth: 910
Flags: HW
LayerCount: 2
Fore
SplineSet
369 619 m 0
 378 620 410 619 419 618 c 0
 438 614 456 608 470 599 c 0
 481 592 492 580 500 565 c 2
 502 560 l 1
 512 569 l 2
 541 597 574 613 613 618 c 0
 626 620 658 620 671 618 c 0
 691 614 709 608 723 599 c 0
 736 591 748 576 755 561 c 0
 771 526 775 467 764 400 c 0
 759 361 755 352 709 167 c 0
 667 0 672 12 663 7 c 0
 635 -7 572 1 572 18 c 0
 572 20 588 88 609 170 c 0
 629 252 648 327 650 337 c 0
 669 417 673 474 664 522 c 0
 662 534 660 544 655 553 c 0
 652 559 645 572 641 576 c 2
 637 579 l 1
 632 575 l 2
 612 563 592 543 574 516 c 0
 546 473 523 421 504 354 c 0
 500 342 480 260 458 174 c 0
 414 -2 419 12 410 7 c 0
 382 -7 319 1 319 18 c 0
 319 20 335 88 356 170 c 0
 402 353 405 363 410 402 c 0
 421 468 416 523 401 556 c 0
 396 564 390 574 385 578 c 0
 381 581 382 581 378 580 c 0
 371 578 357 570 350 565 c 0
 318 542 293 504 276 451 c 0
 273 443 247 344 218 227 c 0
 160 -7 166 12 157 7 c 0
 129 -7 66 1 66 18 c 0
 66 20 98 151 137 310 c 0
 204 579 210 599 213 602 c 0
 226 616 275 619 299 608 c 2
 303 605 l 1
 313 609 l 2
 329 614 348 617 369 619 c 0
EndSplineSet
EndChar

StartChar: n
Encoding: 110 110 76
Width: 516
VWidth: 910
Flags: HW
LayerCount: 2
Fore
SplineSet
389 619 m 0
 391 620 398 620 405 620 c 0
 455 620 495 606 520 581 c 0
 539 560 549 533 554 494 c 0
 556 478 556 435 553 415 c 0
 548 371 546 361 499 174 c 0
 455 -2 460 12 451 7 c 0
 423 -7 360 1 360 18 c 0
 360 20 377 91 399 177 c 0
 438 335 443 356 448 384 c 0
 453 414 454 432 454 459 c 0
 455 484 455 494 451 512 c 0
 445 545 429 571 408 581 c 0
 404 583 404 583 399 582 c 0
 384 579 364 570 349 560 c 0
 317 537 292 499 276 451 c 0
 273 443 250 353 218 227 c 0
 160 -7 166 12 157 7 c 0
 129 -7 66 1 66 18 c 0
 66 20 98 151 137 310 c 0
 204 579 210 599 213 602 c 0
 220 610 242 615 266 614 c 0
 282 613 295 610 303 605 c 2
 308 603 l 1
 312 604 l 2
 329 610 360 617 389 619 c 0
EndSplineSet
EndChar

StartChar: o
Encoding: 111 111 77
Width: 576
VWidth: 910
Flags: HW
LayerCount: 2
Fore
SplineSet
417 619 m 0
 426 620 466 619 476 618 c 0
 514 613 542 602 567 586 c 0
 579 578 596 562 603 551 c 0
 617 530 625 504 630 473 c 0
 632 459 632 415 630 400 c 0
 624 340 605 266 583 212 c 0
 571 182 552 147 536 123 c 0
 512 90 484 61 456 43 c 0
 419 18 378 2 330 -4 c 0
 315 -6 273 -6 259 -4 c 0
 205 2 169 19 142 46 c 0
 131 57 123 66 117 80 c 0
 109 95 103 118 99 141 c 0
 97 155 97 199 99 214 c 0
 104 260 120 325 136 375 c 0
 160 444 194 502 236 542 c 0
 283 587 344 614 417 619 c 0
449 582 m 0
 441 583 432 583 422 581 c 0
 396 576 365 558 340 537 c 0
 317 518 294 489 276 458 c 0
 268 445 252 412 247 397 c 0
 225 343 206 268 200 212 c 0
 198 198 198 159 200 147 c 0
 204 117 212 91 225 73 c 0
 233 60 247 46 261 40 c 0
 269 35 281 33 289 32 c 0
 308 31 339 42 366 59 c 0
 421 94 465 161 494 248 c 0
 511 298 524 353 529 401 c 0
 531 415 531 456 529 468 c 0
 525 497 517 524 504 542 c 0
 492 561 469 577 449 582 c 0
EndSplineSet
EndChar

StartChar: p
Encoding: 112 112 78
Width: 500
VWidth: 910
Flags: HW
LayerCount: 2
Fore
SplineSet
376 619 m 0
 389 620 421 620 434 617 c 0
 485 610 520 587 538 549 c 0
 548 528 554 500 555 465 c 0
 556 420 550 375 531 302 c 0
 508 210 483 151 447 100 c 0
 396 27 328 -8 245 -5 c 0
 219 -4 197 -1 178 6 c 0
 171 8 166 10 166 10 c 2
 165 10 153 -34 139 -90 c 0
 111 -202 115 -193 104 -198 c 0
 77 -211 20 -205 15 -188 c 0
 14 -187 57 -11 112 207 c 0
 204 573 210 599 213 602 c 0
 225 615 269 618 295 609 c 0
 298 608 301 606 303 605 c 2
 306 603 l 1
 315 606 l 2
 333 612 355 617 376 619 c 0
405 580 m 0
 401 582 399 583 398 583 c 0
 393 583 378 578 368 573 c 0
 343 560 324 542 306 516 c 0
 294 497 285 478 276 451 c 0
 270 431 207 183 204 163 c 0
 196 114 200 80 218 55 c 0
 225 45 237 36 248 33 c 0
 252 32 254 32 259 34 c 0
 284 42 314 65 336 93 c 0
 382 150 415 227 440 346 c 0
 457 423 459 482 444 528 c 0
 437 551 421 572 405 580 c 0
EndSplineSet
EndChar

StartChar: q
Encoding: 113 113 79
Width: 500
VWidth: 910
Flags: HW
LayerCount: 2
Fore
SplineSet
379 619 m 0
 390 620 423 619 436 618 c 0
 456 615 475 609 487 604 c 2
 492 603 l 1
 495 605 l 2
 511 616 556 617 578 607 c 0
 583 604 589 600 589 596 c 0
 589 595 546 418 491 202 c 0
 409 -127 392 -190 390 -192 c 0
 385 -198 369 -204 349 -205 c 0
 322 -206 297 -198 293 -188 c 0
 292 -186 298 -163 317 -90 c 0
 330 -37 340 6 340 7 c 2
 340 7 336 6 331 5 c 0
 320 1 304 -1 289 -4 c 0
 273 -6 236 -6 221 -4 c 0
 183 2 157 15 137 36 c 0
 118 56 106 82 101 121 c 0
 99 138 99 181 102 204 c 0
 106 234 111 264 122 306 c 0
 146 402 171 464 209 517 c 0
 253 579 310 612 379 619 c 0
409 581 m 0
 403 583 401 583 394 580 c 0
 379 575 359 563 342 548 c 0
 311 521 279 469 257 412 c 0
 233 355 210 263 203 202 c 0
 200 182 200 142 202 127 c 0
 204 114 206 96 210 87 c 0
 217 63 233 43 250 35 c 2
 256 32 l 1
 266 34 l 2
 278 37 294 45 305 53 c 0
 329 69 350 96 364 127 c 0
 370 139 376 158 381 172 c 0
 385 186 445 426 449 443 c 0
 454 462 454 474 454 493 c 0
 454 513 454 521 450 534 c 0
 442 559 428 575 409 581 c 0
EndSplineSet
EndChar

StartChar: r
Encoding: 114 114 80
Width: 455
VWidth: 910
Flags: HW
LayerCount: 2
Fore
SplineSet
374 619 m 0
 382 620 429 619 441 618 c 0
 515 609 554 583 557 542 c 0
 557 532 556 521 553 517 c 0
 550 513 540 508 529 506 c 0
 518 503 496 503 485 505 c 0
 470 508 459 513 456 519 c 0
 454 521 454 522 455 527 c 0
 459 549 450 567 433 575 c 0
 424 580 418 582 403 583 c 0
 392 583 389 583 383 581 c 0
 366 576 345 564 330 549 c 0
 306 525 290 495 276 454 c 0
 274 449 249 351 221 238 c 2
 169 31 l 1
 174 29 l 1
 191 18 178 5 147 1 c 0
 138 0 94 0 85 1 c 0
 50 6 39 22 65 32 c 2
 68 34 l 1
 139 316 l 2
 205 580 210 599 213 602 c 0
 226 616 274 619 299 607 c 2
 304 605 l 1
 315 609 l 2
 320 610 332 612 339 614 c 0
 351 617 357 618 374 619 c 0
EndSplineSet
EndChar

StartChar: s
Encoding: 115 115 81
Width: 516
VWidth: 910
Flags: HW
LayerCount: 2
Fore
SplineSet
385 619 m 0
 395 620 446 619 459 618 c 0
 525 611 568 589 582 556 c 0
 588 539 587 512 580 505 c 0
 560 489 494 492 484 510 c 0
 482 512 482 513 483 519 c 0
 488 536 482 554 471 565 c 0
 459 577 441 583 411 583 c 0
 396 583 384 581 371 576 c 0
 354 571 340 562 325 550 c 0
 304 532 285 502 275 470 c 0
 269 452 268 445 268 430 c 0
 268 415 269 407 276 394 c 0
 288 369 317 345 362 324 c 0
 414 301 439 285 461 265 c 0
 485 241 497 217 499 190 c 0
 499 176 498 165 493 149 c 0
 468 63 408 12 313 -2 c 0
 291 -5 273 -5 248 -5 c 0
 212 -4 186 -1 161 6 c 0
 110 21 84 48 84 85 c 0
 84 93 85 103 87 106 c 0
 95 119 136 124 165 117 c 0
 173 115 181 111 185 107 c 0
 187 104 187 104 187 99 c 0
 185 84 185 79 186 73 c 0
 192 44 218 30 264 32 c 0
 282 33 297 37 314 46 c 0
 346 63 371 94 386 135 c 0
 395 158 399 176 398 191 c 0
 396 218 380 242 352 264 c 0
 337 275 320 284 282 301 c 0
 231 325 196 352 179 381 c 0
 159 414 163 454 188 505 c 0
 204 538 227 565 258 583 c 0
 291 604 332 615 385 619 c 0
EndSplineSet
EndChar

StartChar: t
Encoding: 116 116 82
Width: 364
VWidth: 910
Flags: HW
LayerCount: 2
Fore
SplineSet
364 818 m 0
 374 820 398 819 408 816 c 0
 423 812 432 807 432 801 c 0
 432 799 423 757 410 707 c 0
 397 657 387 616 387 615 c 2
 387 615 401 614 419 614 c 0
 446 613 452 614 458 612 c 0
 491 605 491 587 458 580 c 0
 451 578 447 578 413 577 c 2
 377 577 l 1
 309 304 l 1
 240 31 l 1
 245 29 l 1
 262 18 249 5 218 1 c 0
 209 0 165 0 156 1 c 0
 121 6 110 22 136 32 c 2
 139 34 l 1
 208 305 l 1
 276 577 l 1
 248 577 l 2
 213 577 202 579 189 584 c 0
 175 590 175 601 189 607 c 0
 203 613 213 614 253 614 c 2
 285 614 l 1
 286 618 l 2
 286 620 296 663 309 713 c 0
 329 795 332 804 335 806 c 0
 340 811 349 815 364 818 c 0
EndSplineSet
EndChar

StartChar: u
Encoding: 117 117 83
Width: 516
VWidth: 910
Flags: HW
LayerCount: 2
Fore
SplineSet
242 613 m 0
 256 615 275 615 289 611 c 0
 301 608 310 601 310 596 c 0
 310 595 293 526 272 441 c 0
 251 357 232 280 230 270 c 0
 214 199 211 145 220 101 c 0
 226 69 242 44 262 34 c 0
 266 32 266 32 271 33 c 0
 317 41 359 80 384 137 c 0
 394 161 396 169 451 387 c 0
 500 584 504 599 507 602 c 0
 520 616 568 619 593 607 c 0
 598 604 604 600 604 596 c 0
 604 595 572 464 532 305 c 0
 466 42 460 15 457 13 c 0
 442 -2 385 -5 365 10 c 0
 363 12 362 12 360 11 c 0
 356 9 334 3 322 1 c 0
 257 -12 199 -4 164 22 c 0
 131 47 116 85 114 146 c 0
 113 174 116 198 122 235 c 0
 127 264 132 288 172 449 c 0
 207 588 210 599 213 602 c 0
 218 607 227 610 242 613 c 0
EndSplineSet
EndChar

StartChar: v
Encoding: 118 118 84
Width: 485
VWidth: 910
Flags: HW
LayerCount: 2
Fore
SplineSet
227 613 m 0
 237 615 260 615 270 612 c 0
 280 610 289 606 292 602 c 0
 295 599 295 598 295 593 c 0
 295 589 288 480 281 348 c 0
 274 217 268 108 268 106 c 0
 268 102 283 134 379 351 c 0
 440 488 490 602 491 603 c 0
 494 606 503 609 510 611 c 0
 533 617 563 614 579 606 c 0
 584 604 589 599 589 596 c 0
 589 595 532 464 461 305 c 0
 373 107 332 15 330 13 c 0
 325 8 315 4 300 1 c 0
 294 0 282 0 248 0 c 0
 213 0 200 0 194 1 c 0
 179 4 170 8 165 13 c 0
 162 16 162 17 162 22 c 0
 162 33 194 594 195 597 c 0
 196 604 208 609 227 613 c 0
EndSplineSet
EndChar

StartChar: w
Encoding: 119 119 85
Width: 758
VWidth: 910
Flags: HW
LayerCount: 2
Fore
SplineSet
197 613 m 0
 206 614 229 615 238 613 c 0
 251 609 261 605 264 600 c 0
 265 598 264 560 255 345 c 0
 250 207 245 93 245 93 c 1
 245 93 297 208 362 347 c 0
 457 553 480 601 482 603 c 0
 500 618 561 618 576 602 c 0
 578 599 578 599 578 590 c 0
 578 585 573 472 568 339 c 0
 563 206 559 97 559 96 c 0
 559 95 611 208 675 347 c 0
 765 543 793 601 795 603 c 0
 812 619 873 618 889 602 c 0
 892 599 892 598 892 595 c 0
 891 591 627 15 624 12 c 0
 621 9 611 6 604 4 c 0
 591 0 583 0 535 0 c 0
 490 1 487 1 480 3 c 0
 470 5 461 9 458 13 c 0
 455 16 455 17 455 23 c 0
 455 28 457 103 461 191 c 0
 465 279 468 351 468 352 c 1
 467 352 433 277 390 184 c 0
 344 83 311 14 309 13 c 0
 304 8 295 4 280 1 c 0
 267 -1 187 -1 174 1 c 0
 164 3 156 4 151 8 c 0
 146 10 141 15 141 18 c 0
 141 19 147 149 153 307 c 0
 158 464 164 594 164 595 c 0
 164 597 165 600 167 602 c 0
 172 607 182 610 197 613 c 0
EndSplineSet
EndChar

StartChar: x
Encoding: 120 120 86
Width: 485
VWidth: 910
Flags: HW
LayerCount: 2
Fore
SplineSet
236 613 m 0
 246 614 269 615 279 612 c 0
 291 609 300 605 303 600 c 0
 304 599 314 558 326 510 c 0
 337 462 347 422 347 421 c 2
 347 421 378 462 415 512 c 0
 460 573 483 603 485 605 c 0
 502 616 549 617 570 607 c 0
 575 604 580 599 580 596 c 0
 580 593 587 602 467 441 c 0
 417 373 375 317 374 316 c 0
 373 315 380 288 409 167 c 0
 428 86 444 19 444 18 c 0
 444 13 435 7 422 4 c 0
 394 -3 358 1 347 13 c 0
 344 15 342 24 320 114 c 2
 297 212 l 1
 224 114 l 2
 184 60 149 15 148 13 c 0
 132 -3 70 -4 53 13 c 0
 51 15 50 16 50 18 c 0
 50 21 68 45 160 169 c 0
 263 308 270 318 269 320 c 0
 269 322 254 385 236 460 c 0
 206 587 203 596 204 599 c 0
 208 605 218 609 236 613 c 0
EndSplineSet
EndChar

StartChar: y
Encoding: 121 121 87
Width: 485
VWidth: 910
Flags: HW
LayerCount: 2
Fore
SplineSet
227 613 m 0
 237 615 260 615 270 612 c 0
 279 610 288 606 292 603 c 0
 294 600 295 598 295 593 c 0
 296 589 296 542 296 489 c 0
 296 435 297 352 297 305 c 2
 298 219 l 1
 393 410 l 2
 445 514 490 601 491 602 c 0
 494 606 502 609 510 611 c 0
 533 617 563 614 579 606 c 0
 584 604 589 599 589 596 c 0
 589 593 194 -189 191 -192 c 0
 186 -197 177 -201 162 -204 c 0
 130 -209 94 -200 94 -187 c 0
 94 -185 111 -149 146 -82 c 2
 197 20 l 1
 196 309 l 2
 195 535 195 597 196 599 c 0
 199 605 210 609 227 613 c 0
EndSplineSet
EndChar

StartChar: z
Encoding: 122 122 88
Width: 485
VWidth: 910
Flags: HW
LayerCount: 2
Fore
SplineSet
227 613 m 0
 232 614 269 614 390 614 c 0
 557 614 556 615 570 610 c 0
 581 607 589 600 589 595 c 0
 589 594 585 588 578 579 c 0
 573 572 477 446 368 301 c 2
 167 38 l 1
 289 37 l 2
 398 36 413 36 418 35 c 0
 436 30 444 25 444 18 c 0
 444 11 431 4 410 1 c 0
 401 0 94 0 85 1 c 0
 65 4 50 11 50 18 c 0
 50 21 82 63 260 299 c 2
 471 577 l 1
 350 577 l 2
 220 578 225 577 211 582 c 0
 200 586 193 592 195 597 c 0
 197 604 209 609 227 613 c 0
EndSplineSet
EndChar

StartChar: braceleft
Encoding: 123 123 89
Width: 273
VWidth: 910
Flags: HW
LayerCount: 2
Fore
SplineSet
380 848 m 0
 385 848 391 849 403 849 c 0
 422 848 430 847 441 842 c 0
 455 836 455 826 440 819 c 0
 425 811 410 799 400 785 c 0
 395 776 379 747 373 730 c 0
 361 701 354 674 339 618 c 0
 325 562 316 533 304 504 c 0
 298 486 283 458 277 448 c 0
 270 438 254 421 244 413 c 0
 239 410 236 409 236 408 c 2
 236 408 237 406 239 403 c 0
 247 394 254 381 257 367 c 0
 258 360 258 354 258 339 c 0
 256 300 251 269 233 196 c 0
 217 128 212 96 210 59 c 0
 210 45 210 40 211 34 c 0
 214 19 221 5 231 -1 c 0
 240 -7 242 -12 237 -18 c 0
 233 -22 226 -24 216 -27 c 0
 210 -29 205 -29 189 -29 c 0
 169 -29 160 -29 150 -24 c 0
 139 -19 126 -6 120 5 c 0
 111 20 109 32 109 59 c 0
 110 98 116 128 132 198 c 0
 151 274 156 305 156 343 c 0
 157 366 155 369 149 382 c 0
 146 388 141 394 132 402 c 0
 128 406 127 407 127 410 c 0
 127 415 132 418 141 423 c 0
 151 428 158 433 167 442 c 0
 176 451 182 462 191 481 c 0
 209 518 220 552 238 624 c 0
 253 680 261 706 273 735 c 0
 280 753 294 782 301 792 c 0
 309 805 326 821 339 830 c 0
 355 841 366 845 380 848 c 0
EndSplineSet
EndChar

StartChar: bar
Encoding: 124 124 90
Width: 303
VWidth: 910
Flags: HW
LayerCount: 2
Fore
SplineSet
335 818 m 0
 355 821 379 818 392 811 c 0
 397 809 402 804 402 801 c 0
 402 799 207 18 206 15 c 0
 205 14 203 11 200 10 c 0
 183 -2 138 -4 116 7 c 0
 111 10 106 15 106 17 c 0
 106 18 149 195 204 411 c 0
 300 795 302 803 305 807 c 0
 310 812 321 816 335 818 c 0
EndSplineSet
EndChar

StartChar: braceright
Encoding: 125 125 91
Width: 273
VWidth: 910
Flags: HW
LayerCount: 2
Fore
SplineSet
261 848 m 0
 262 849 271 849 280 849 c 0
 294 848 299 849 305 847 c 0
 327 842 347 825 356 804 c 0
 360 794 361 785 362 768 c 0
 363 730 357 695 340 622 c 0
 321 547 318 520 318 482 c 0
 318 457 318 452 324 440 c 0
 327 433 335 424 340 421 c 0
 342 420 345 418 347 416 c 0
 354 410 351 402 338 397 c 0
 330 393 317 386 310 379 c 0
 299 369 291 357 281 336 c 0
 262 297 252 267 234 197 c 0
 217 131 206 100 191 66 c 0
 177 37 170 25 155 10 c 0
 135 -10 113 -23 92 -28 c 0
 87 -29 81 -29 66 -29 c 0
 44 -29 38 -28 26 -23 c 0
 12 -16 13 -7 29 1 c 0
 44 8 62 21 71 35 c 0
 83 51 100 90 112 125 c 0
 118 145 124 163 134 202 c 0
 151 269 161 302 178 337 c 0
 192 364 200 376 215 390 c 0
 222 397 234 408 239 410 c 0
 241 411 242 411 237 416 c 0
 228 425 222 436 218 450 c 0
 216 457 217 460 217 482 c 0
 217 522 220 548 239 624 c 0
 256 697 262 733 261 769 c 0
 260 784 259 791 254 801 c 0
 250 809 245 814 238 819 c 0
 231 824 227 828 228 832 c 0
 229 836 234 841 239 843 c 0
 244 845 252 847 261 848 c 0
EndSplineSet
EndChar

StartChar: asciitilde
Encoding: 126 126 92
Width: 607
VWidth: 910
Flags: HW
LayerCount: 2
Fore
SplineSet
253 391 m 0
 269 392 315 391 330 390 c 0
 380 384 414 368 426 344 c 0
 432 333 434 322 431 307 c 0
 427 286 433 270 448 264 c 0
 454 260 462 259 476 259 c 0
 503 259 522 266 537 281 c 0
 544 288 548 295 552 304 c 0
 553 308 554 312 556 313 c 0
 561 318 570 322 585 325 c 0
 617 330 654 321 654 308 c 0
 654 303 649 292 644 285 c 0
 635 270 620 255 601 246 c 0
 566 229 522 221 466 222 c 0
 414 224 380 232 355 248 c 0
 333 263 325 282 330 309 c 0
 333 328 328 344 313 350 c 0
 307 354 299 355 285 355 c 0
 258 355 239 348 225 333 c 0
 217 326 213 319 209 309 c 0
 206 302 203 300 198 296 c 0
 170 282 107 290 107 308 c 0
 107 309 108 313 109 317 c 0
 114 331 127 346 142 358 c 0
 166 375 207 387 253 391 c 0
EndSplineSet
EndChar

StartChar: Adieresis
Encoding: 196 196 93
Width: 576
VWidth: 910
Flags: HW
LayerCount: 2
Fore
SplineSet
404 893 m 0
 443 898 486 887 486 872 c 0
 486 860 458 849 426 849 c 0
 393 849 365 860 365 872 c 0
 365 881 381 890 404 893 c 0
565 893 m 0
 604 898 647 887 647 872 c 0
 647 860 619 849 587 849 c 0
 554 849 526 860 526 872 c 0
 526 881 542 890 565 893 c 0
435 818 m 0
 446 819 530 819 542 818 c 0
 559 815 570 810 573 803 c 0
 573 802 566 631 555 409 c 0
 538 69 535 17 534 14 c 0
 526 2 483 -3 455 4 c 0
 447 7 441 9 438 13 c 0
 435 16 435 16 435 25 c 0
 435 36 450 326 450 335 c 2
 451 342 l 1
 374 342 l 1
 298 342 l 1
 224 178 l 2
 176 71 149 15 147 13 c 0
 132 -3 70 -3 53 13 c 0
 50 16 50 16 50 19 c 0
 51 24 402 803 406 806 c 0
 411 811 420 815 435 818 c 0
461 549 m 0
 466 640 469 716 469 718 c 0
 469 721 453 688 392 552 c 0
 350 459 316 382 315 381 c 0
 315 379 318 380 383 380 c 0
 451 380 452 379 452 381 c 0
 452 382 456 458 461 549 c 0
EndSplineSet
EndChar

StartChar: Ccedilla
Encoding: 199 199 94
Width: 546
VWidth: 910
Flags: HW
LayerCount: 2
Fore
SplineSet
457 824 m 0
 463 825 512 824 523 823 c 0
 578 818 617 806 645 785 c 0
 661 772 673 757 678 736 c 0
 680 729 680 727 680 714 c 0
 680 706 680 697 679 692 c 0
 678 685 678 684 674 680 c 0
 667 673 650 669 628 669 c 0
 612 669 601 670 591 674 c 0
 585 676 578 681 577 684 c 0
 577 686 578 692 579 697 c 0
 583 727 574 753 555 768 c 0
 538 781 517 786 488 786 c 2
 473 787 l 1
 465 784 l 2
 434 770 400 739 373 698 c 0
 343 652 319 603 296 538 c 0
 274 477 245 359 233 291 c 0
 226 250 224 221 224 186 c 0
 224 151 226 126 231 103 c 0
 240 70 258 44 276 34 c 0
 281 32 281 32 293 32 c 0
 325 34 345 39 370 51 c 0
 402 66 425 93 437 128 c 0
 440 135 440 137 442 139 c 0
 460 153 508 155 530 143 c 0
 540 138 541 134 536 120 c 0
 525 87 498 55 464 35 c 0
 440 21 411 11 377 4 c 0
 370 2 363 1 363 1 c 2
 363 0 364 -2 365 -5 c 0
 374 -21 372 -45 359 -66 c 0
 354 -75 341 -90 332 -95 c 0
 313 -108 288 -115 257 -117 c 0
 224 -118 198 -109 198 -97 c 0
 198 -90 212 -83 233 -80 c 0
 238 -79 240 -79 245 -76 c 0
 254 -70 262 -59 267 -45 c 0
 269 -40 269 -36 269 -27 c 0
 269 -18 269 -17 266 -12 c 0
 262 -5 264 -6 249 -4 c 0
 206 1 173 19 153 49 c 0
 133 79 124 117 122 175 c 0
 121 235 130 298 155 400 c 0
 181 506 203 572 234 634 c 0
 252 670 274 707 293 732 c 0
 304 746 327 768 339 777 c 0
 372 803 406 818 445 823 c 0
 450 824 455 824 457 824 c 0
EndSplineSet
EndChar

StartChar: Odieresis
Encoding: 214 214 95
Width: 698
VWidth: 910
Flags: HW
LayerCount: 2
Fore
SplineSet
465 893 m 0
 504 898 547 887 547 872 c 0
 547 860 519 849 487 849 c 0
 454 849 426 860 426 872 c 0
 426 881 442 890 465 893 c 0
626 893 m 0
 665 898 708 887 708 872 c 0
 708 860 680 849 648 849 c 0
 615 849 587 860 587 872 c 0
 587 881 603 890 626 893 c 0
523 824 m 0
 539 825 578 824 594 822 c 0
 641 816 679 802 710 779 c 0
 753 747 777 700 786 630 c 0
 788 614 788 564 786 546 c 0
 781 492 768 434 750 368 c 0
 716 250 669 162 605 97 c 0
 559 51 505 21 441 5 c 0
 410 -2 387 -5 352 -5 c 0
 328 -5 322 -5 309 -3 c 0
 260 3 225 17 194 40 c 0
 150 72 126 119 117 189 c 0
 115 205 115 255 117 274 c 0
 122 327 135 385 153 452 c 0
 187 569 234 657 298 722 c 0
 359 782 435 817 523 824 c 0
566 786 m 0
 548 790 527 786 502 777 c 0
 476 769 450 755 425 736 c 0
 399 716 380 697 355 664 c 0
 305 598 270 517 242 402 c 0
 212 282 209 201 231 134 c 0
 241 104 255 81 275 65 c 0
 300 43 330 31 357 32 c 0
 393 34 439 53 478 83 c 0
 504 103 523 122 548 156 c 0
 598 222 633 302 661 418 c 0
 687 524 693 597 679 662 c 0
 674 686 663 712 653 727 c 0
 632 758 600 781 566 786 c 0
EndSplineSet
EndChar

StartChar: Udieresis
Encoding: 220 220 96
Width: 607
VWidth: 910
Flags: HW
LayerCount: 2
Fore
SplineSet
420 893 m 0
 459 898 502 887 502 872 c 0
 502 860 473 849 441 849 c 0
 408 849 380 860 380 872 c 0
 380 881 397 890 420 893 c 0
581 893 m 0
 620 898 663 887 663 872 c 0
 663 860 635 849 603 849 c 0
 570 849 542 860 542 872 c 0
 542 881 558 890 581 893 c 0
293 818 m 0
 303 820 327 819 337 816 c 0
 352 812 361 807 361 801 c 0
 361 799 327 660 285 491 c 0
 242 322 207 179 206 174 c 0
 198 129 204 91 224 66 c 0
 242 43 270 32 308 32 c 0
 351 32 390 47 423 75 c 0
 452 100 475 134 489 178 c 0
 491 183 527 327 570 496 c 0
 639 775 646 804 649 806 c 0
 656 814 679 820 702 819 c 0
 727 817 746 810 746 801 c 0
 746 797 594 186 589 173 c 0
 571 116 536 70 490 40 c 0
 478 33 460 23 445 18 c 0
 392 -3 320 -11 254 -2 c 0
 175 7 125 39 108 90 c 0
 100 114 100 145 105 176 c 0
 106 181 141 325 184 495 c 0
 254 775 261 804 264 806 c 0
 269 811 278 815 293 818 c 0
EndSplineSet
EndChar

StartChar: adieresis
Encoding: 228 228 97
Width: 516
VWidth: 910
Flags: HW
LayerCount: 2
Fore
SplineSet
326 689 m 0
 336 690 361 689 370 688 c 0
 397 683 410 673 403 662 c 0
 397 653 376 646 350 644 c 0
 317 643 287 652 283 665 c 0
 280 675 299 685 326 689 c 0
484 688 m 0
 523 693 566 682 566 667 c 0
 566 655 538 644 506 644 c 0
 473 644 445 655 445 667 c 0
 445 676 461 685 484 688 c 0
387 619 m 0
 423 623 469 616 498 605 c 0
 506 601 506 601 508 603 c 0
 520 613 557 617 583 611 c 0
 595 608 604 601 604 596 c 0
 604 595 572 464 532 305 c 0
 466 42 460 15 457 13 c 0
 442 -2 385 -5 365 10 c 2
 362 12 l 1
 356 9 l 2
 332 1 302 -4 271 -5 c 0
 219 -7 177 6 150 31 c 0
 124 56 111 93 109 149 c 0
 108 194 116 245 134 318 c 0
 154 394 173 444 201 491 c 0
 217 518 231 535 249 554 c 0
 288 592 333 614 387 619 c 0
417 582 m 0
 411 583 409 583 401 580 c 0
 382 573 363 560 344 542 c 0
 312 509 282 459 260 397 c 0
 243 350 224 278 217 226 c 0
 212 198 211 185 211 160 c 0
 210 134 211 125 216 105 c 0
 222 70 237 47 259 35 c 0
 264 32 264 32 270 33 c 0
 296 38 326 54 347 78 c 0
 369 103 383 129 395 168 c 0
 400 183 463 434 466 451 c 0
 475 498 470 538 450 561 c 0
 443 571 429 579 417 582 c 0
EndSplineSet
EndChar

StartChar: ccedilla
Encoding: 231 231 98
Width: 516
VWidth: 910
Flags: HW
LayerCount: 2
Fore
SplineSet
383 619 m 0
 397 620 441 620 459 618 c 0
 525 611 568 589 582 556 c 0
 588 539 587 512 580 505 c 0
 560 489 494 492 484 510 c 0
 482 512 482 513 483 519 c 0
 488 536 482 554 471 565 c 0
 462 574 449 580 430 582 c 0
 410 584 401 582 383 572 c 0
 364 561 342 540 328 522 c 0
 284 466 254 397 229 292 c 0
 215 235 211 199 211 160 c 0
 210 134 211 125 216 105 c 0
 222 70 237 47 259 35 c 2
 264 32 l 1
 276 32 l 2
 303 34 324 40 342 52 c 0
 359 63 373 80 379 98 c 0
 380 102 381 105 383 107 c 0
 390 116 420 122 445 119 c 0
 467 116 481 109 481 102 c 0
 481 97 477 86 472 78 c 0
 461 57 442 38 418 25 c 0
 401 16 374 8 352 3 c 2
 347 2 l 1
 350 -4 l 2
 362 -28 353 -59 330 -83 c 0
 321 -92 314 -97 304 -102 c 0
 271 -118 218 -121 193 -108 c 0
 188 -106 183 -101 183 -98 c 0
 183 -96 184 -94 186 -92 c 0
 191 -87 201 -83 216 -81 c 0
 226 -79 229 -77 235 -71 c 0
 252 -54 258 -27 250 -11 c 2
 247 -5 l 1
 238 -5 l 2
 234 -4 225 -3 219 -2 c 0
 161 10 127 42 116 98 c 0
 112 115 110 128 109 149 c 0
 108 194 116 245 134 318 c 0
 154 394 173 443 201 491 c 0
 217 518 231 535 249 554 c 0
 287 592 329 613 383 619 c 0
EndSplineSet
EndChar

StartChar: odieresis
Encoding: 246 246 99
Width: 576
VWidth: 910
Flags: HW
LayerCount: 2
Fore
SplineSet
356 689 m 0
 366 690 391 689 400 688 c 0
 427 683 440 673 433 662 c 0
 427 653 406 646 380 644 c 0
 347 643 317 652 313 665 c 0
 310 675 329 685 356 689 c 0
514 688 m 0
 553 693 596 682 596 667 c 0
 596 655 568 644 536 644 c 0
 503 644 475 655 475 667 c 0
 475 676 491 685 514 688 c 0
417 619 m 0
 426 620 466 619 476 618 c 0
 514 613 542 602 567 586 c 0
 579 578 596 562 603 551 c 0
 617 530 625 504 630 473 c 0
 632 459 632 415 630 400 c 0
 624 340 605 266 583 212 c 0
 571 182 552 147 536 123 c 0
 512 90 484 61 456 43 c 0
 419 18 378 2 330 -4 c 0
 315 -6 273 -6 259 -4 c 0
 205 2 169 19 142 46 c 0
 131 57 123 66 117 80 c 0
 109 95 103 118 99 141 c 0
 97 155 97 199 99 214 c 0
 104 260 120 325 136 375 c 0
 160 444 194 502 236 542 c 0
 283 587 344 614 417 619 c 0
449 582 m 0
 441 583 432 583 422 581 c 0
 396 576 365 558 340 537 c 0
 317 518 294 489 276 458 c 0
 268 445 252 412 247 397 c 0
 225 343 206 268 200 212 c 0
 198 198 198 159 200 147 c 0
 204 117 212 91 225 73 c 0
 233 60 247 46 261 40 c 0
 269 35 281 33 289 32 c 0
 308 31 339 42 366 59 c 0
 421 94 465 161 494 248 c 0
 511 298 524 353 529 401 c 0
 531 415 531 456 529 468 c 0
 525 497 517 524 504 542 c 0
 492 561 469 577 449 582 c 0
EndSplineSet
EndChar

StartChar: udieresis
Encoding: 252 252 100
Width: 516
VWidth: 910
Flags: HW
LayerCount: 2
Fore
SplineSet
326 689 m 0
 336 690 361 689 370 688 c 0
 397 683 410 673 403 662 c 0
 397 653 376 646 350 644 c 0
 317 643 287 652 283 665 c 0
 280 675 299 685 326 689 c 0
484 688 m 0
 523 693 566 682 566 667 c 0
 566 655 538 644 506 644 c 0
 473 644 445 655 445 667 c 0
 445 676 461 685 484 688 c 0
242 613 m 0
 256 615 275 615 289 611 c 0
 301 608 310 601 310 596 c 0
 310 595 293 526 272 441 c 0
 251 357 232 280 230 270 c 0
 214 199 211 145 220 101 c 0
 226 69 242 44 262 34 c 0
 266 32 266 32 271 33 c 0
 317 41 359 80 384 137 c 0
 394 161 396 169 451 387 c 0
 500 584 504 599 507 602 c 0
 520 616 568 619 593 607 c 0
 598 604 604 600 604 596 c 0
 604 595 572 464 532 305 c 0
 466 42 460 15 457 13 c 0
 442 -2 385 -5 365 10 c 0
 363 12 362 12 360 11 c 0
 356 9 334 3 322 1 c 0
 257 -12 199 -4 164 22 c 0
 131 47 116 85 114 146 c 0
 113 174 116 198 122 235 c 0
 127 264 132 288 172 449 c 0
 207 588 210 599 213 602 c 0
 218 607 227 610 242 613 c 0
EndSplineSet
EndChar

StartChar: degree
Encoding: 176 176 101
Width: 425
VWidth: 910
Flags: HW
LayerCount: 2
Fore
SplineSet
390 818 m 0
 425 821 452 816 461 806 c 0
 465 801 465 800 461 795 c 0
 454 788 439 783 414 782 c 0
 397 781 389 780 378 776 c 0
 345 762 321 734 307 695 c 0
 290 647 298 606 328 591 c 0
 336 586 340 585 355 584 c 0
 371 583 375 585 387 590 c 0
 403 596 421 608 431 620 c 0
 446 636 458 658 464 681 c 0
 464 684 466 687 468 689 c 0
 475 698 502 704 526 701 c 0
 544 699 558 694 563 688 c 0
 565 686 565 686 565 682 c 0
 563 671 554 647 544 632 c 0
 516 586 464 556 400 548 c 0
 380 545 342 546 314 550 c 0
 253 556 215 580 202 615 c 0
 195 635 195 659 201 685 c 0
 214 733 244 772 287 794 c 0
 314 807 351 816 390 818 c 0
EndSplineSet
EndChar

StartChar: grave
Encoding: 96 96 102
Width: 152
VWidth: 910
Flags: HW
LayerCount: 2
Fore
SplineSet
259 818 m 0
 269 819 285 819 295 817 c 0
 326 813 348 802 358 785 c 0
 368 769 369 738 363 706 c 0
 359 686 357 677 354 674 c 0
 351 670 343 667 334 664 c 0
 323 661 299 660 287 662 c 0
 272 665 261 670 258 675 c 0
 256 678 256 679 259 693 c 0
 264 717 265 725 265 743 c 0
 265 760 264 769 259 776 c 0
 255 781 254 784 248 786 c 0
 235 789 226 795 226 801 c 0
 226 808 240 815 259 818 c 0
EndSplineSet
EndChar

StartChar: quotesingle
Encoding: 39 39 103
Width: 121
VWidth: 910
Flags: HW
LayerCount: 2
Fore
SplineSet
244 818 m 0
 264 821 288 818 301 811 c 0
 306 809 311 804 311 801 c 2
 311 801 304 772 296 738 c 0
 281 679 281 676 278 673 c 0
 274 669 267 667 257 664 c 0
 251 662 246 662 230 662 c 0
 210 662 202 662 192 667 c 0
 186 670 180 675 180 678 c 0
 180 680 187 709 196 743 c 0
 211 802 211 804 214 807 c 0
 219 812 230 816 244 818 c 0
EndSplineSet
EndChar

StartChar: Aring
Encoding: 197 197 104
Width: 576
VWidth: 910
Flags: HW
LayerCount: 2
Fore
SplineSet
514 984 m 0
 519 984 528 985 535 984 c 0
 578 983 602 969 607 944 c 0
 610 931 606 910 599 894 c 0
 589 874 574 860 553 852 c 0
 537 846 513 842 495 843 c 0
 460 846 439 855 431 872 c 0
 426 880 425 886 425 898 c 0
 427 921 437 944 452 959 c 0
 467 972 489 981 514 984 c 0
541 961 m 0
 536 965 530 965 522 962 c 0
 507 957 494 944 487 925 c 0
 483 917 481 901 481 894 c 0
 481 882 485 872 493 867 c 0
 497 864 498 864 503 864 c 0
 520 866 538 881 546 903 c 0
 550 911 553 927 553 934 c 0
 553 946 548 956 541 961 c 0
435 818 m 0
 446 819 530 819 542 818 c 0
 559 815 570 810 573 803 c 0
 573 802 566 631 555 409 c 0
 538 69 535 17 534 14 c 0
 526 2 483 -3 455 4 c 0
 447 7 441 9 438 13 c 0
 435 16 435 16 435 25 c 0
 435 36 450 326 450 335 c 2
 451 342 l 1
 374 342 l 1
 298 342 l 1
 224 178 l 2
 176 71 149 15 147 13 c 0
 132 -3 70 -3 53 13 c 0
 50 16 50 16 50 19 c 0
 51 24 402 803 406 806 c 0
 411 811 420 815 435 818 c 0
461 549 m 0
 466 640 469 716 469 718 c 0
 469 721 453 688 392 552 c 0
 350 459 316 382 315 381 c 0
 315 379 318 380 383 380 c 0
 451 380 452 379 452 381 c 0
 452 382 456 458 461 549 c 0
EndSplineSet
EndChar

StartChar: AE
Encoding: 198 198 105
Width: 698
VWidth: 910
Flags: HW
LayerCount: 2
Fore
SplineSet
496 818 m 0
 505 819 807 820 818 818 c 0
 845 814 859 804 850 795 c 0
 845 790 833 785 818 783 c 0
 814 782 768 782 704 782 c 2
 595 782 l 1
 594 778 l 2
 594 776 575 698 551 603 c 0
 527 508 508 432 507 431 c 0
 507 429 513 429 600 429 c 0
 691 428 693 428 700 426 c 0
 733 418 733 402 700 394 c 0
 693 392 691 392 595 391 c 2
 498 391 l 1
 453 216 l 2
 429 119 410 39 410 38 c 0
 410 37 430 37 512 37 c 0
 573 37 619 37 623 36 c 0
 649 32 663 23 654 13 c 0
 650 8 638 3 623 1 c 0
 618 0 562 0 481 0 c 0
 337 0 336 0 322 5 c 0
 312 8 303 13 303 18 c 0
 303 19 321 92 343 181 c 2
 384 342 l 1
 353 342 l 1
 323 342 l 1
 237 178 l 2
 190 88 149 14 147 13 c 0
 134 -1 86 -5 61 7 c 0
 55 10 50 14 50 18 c 0
 50 21 463 802 467 806 c 0
 472 811 481 815 496 818 c 0
416 471 m 0
 428 518 438 558 438 558 c 2
 437 558 344 382 343 380 c 0
 343 379 354 380 368 380 c 2
 393 380 l 1
 394 383 l 2
 394 385 404 425 416 471 c 0
EndSplineSet
EndChar

StartChar: Oslash
Encoding: 216 216 106
Width: 698
VWidth: 910
Flags: HW
LayerCount: 2
Fore
SplineSet
523 824 m 0
 539 825 578 824 594 822 c 0
 637 817 674 804 701 786 c 0
 705 783 707 781 708 781 c 2
 708 781 714 788 720 795 c 0
 731 809 732 809 737 812 c 0
 762 824 812 821 825 806 c 0
 829 803 828 799 826 796 c 0
 825 795 811 777 793 755 c 2
 761 717 l 1
 765 711 l 2
 774 691 782 660 786 630 c 0
 788 614 788 564 786 546 c 0
 781 492 768 434 750 368 c 0
 716 250 669 162 605 97 c 0
 559 51 505 21 441 5 c 0
 410 -2 387 -5 352 -5 c 0
 322 -5 308 -3 283 2 c 0
 254 7 223 20 202 34 c 0
 198 37 196 38 195 38 c 2
 195 38 189 32 183 25 c 0
 172 11 171 10 166 7 c 0
 141 -5 91 -2 78 13 c 0
 74 16 74 21 76 24 c 0
 77 25 92 42 110 64 c 2
 142 102 l 1
 138 108 l 2
 129 128 121 159 117 189 c 0
 115 205 115 255 117 274 c 0
 122 327 135 385 153 452 c 0
 187 569 234 657 298 722 c 0
 359 782 435 817 523 824 c 0
566 786 m 0
 548 790 527 786 502 777 c 0
 476 769 450 755 425 736 c 0
 399 716 380 697 355 664 c 0
 305 598 270 517 242 402 c 0
 229 350 223 315 218 272 c 0
 216 259 216 204 218 198 c 2
 219 194 l 1
 434 451 l 2
 551 593 651 712 653 715 c 2
 657 720 l 1
 653 727 l 2
 632 758 600 781 566 786 c 0
685 588 m 0
 685 604 685 619 684 622 c 2
 684 625 l 1
 470 368 l 2
 352 226 252 108 250 105 c 2
 246 99 l 1
 250 92 l 2
 275 54 318 30 357 32 c 0
 393 34 439 53 478 83 c 0
 504 103 523 122 548 156 c 0
 598 222 633 302 661 418 c 0
 674 469 679 504 684 548 c 0
 685 554 685 571 685 588 c 0
EndSplineSet
EndChar

StartChar: aring
Encoding: 229 229 107
Width: 516
VWidth: 910
Flags: HW
LayerCount: 2
Fore
SplineSet
438 779 m 0
 459 782 486 777 501 770 c 0
 515 764 522 753 525 739 c 0
 528 726 524 705 517 689 c 0
 506 668 493 655 470 646 c 0
 449 639 420 636 395 641 c 0
 371 645 356 653 350 667 c 0
 345 675 344 682 344 694 c 0
 346 717 356 740 371 755 c 0
 386 769 408 776 438 779 c 0
459 756 m 0
 454 760 449 760 441 757 c 0
 426 752 413 739 406 720 c 0
 402 712 400 696 400 689 c 0
 400 677 404 667 412 662 c 0
 416 659 417 659 422 659 c 0
 434 660 450 671 458 685 c 0
 465 697 471 716 471 729 c 0
 471 741 466 751 459 756 c 0
387 619 m 0
 423 623 469 616 498 605 c 0
 506 601 506 601 508 603 c 0
 520 613 557 617 583 611 c 0
 595 608 604 601 604 596 c 0
 604 595 572 464 532 305 c 0
 466 42 460 15 457 13 c 0
 442 -2 385 -5 365 10 c 2
 362 12 l 1
 356 9 l 2
 332 1 302 -4 271 -5 c 0
 219 -7 177 6 150 31 c 0
 124 56 111 93 109 149 c 0
 108 194 116 245 134 318 c 0
 154 394 173 444 201 491 c 0
 217 518 231 535 249 554 c 0
 288 592 333 614 387 619 c 0
417 582 m 0
 411 583 409 583 401 580 c 0
 382 573 363 560 344 542 c 0
 312 509 282 459 260 397 c 0
 243 350 224 278 217 226 c 0
 212 198 211 185 211 160 c 0
 210 134 211 125 216 105 c 0
 222 70 237 47 259 35 c 0
 264 32 264 32 270 33 c 0
 296 38 326 54 347 78 c 0
 369 103 383 129 395 168 c 0
 400 183 463 434 466 451 c 0
 475 498 470 538 450 561 c 0
 443 571 429 579 417 582 c 0
EndSplineSet
EndChar

StartChar: ae
Encoding: 230 230 108
Width: 576
VWidth: 910
Flags: HW
LayerCount: 2
Fore
SplineSet
290 613 m 0
 305 614 346 614 358 613 c 0
 393 608 418 597 435 581 c 2
 441 575 l 1
 446 579 l 2
 475 604 513 615 557 614 c 0
 594 612 622 602 640 583 c 0
 660 561 670 528 670 476 c 0
 670 435 662 389 647 323 c 0
 643 308 642 303 640 301 c 0
 637 297 628 293 618 291 c 0
 611 289 609 290 511 289 c 2
 411 289 l 1
 410 284 l 2
 410 282 407 271 405 261 c 0
 387 182 383 119 393 75 c 0
 398 59 405 42 413 35 c 2
 416 33 l 1
 422 34 l 2
 426 35 434 37 439 40 c 0
 464 53 481 74 492 106 c 0
 494 111 495 116 496 117 c 0
 496 118 499 120 502 122 c 0
 522 133 565 132 584 122 c 0
 590 118 593 115 593 111 c 0
 593 106 588 92 583 82 c 0
 559 34 514 5 445 -4 c 0
 427 -6 398 -7 384 -5 c 0
 348 0 323 14 309 35 c 2
 305 40 l 1
 300 36 l 2
 295 31 281 22 271 17 c 0
 254 8 230 0 208 -4 c 0
 194 -6 162 -6 149 -4 c 0
 114 1 87 13 70 32 c 0
 43 61 36 111 50 180 c 0
 60 227 74 269 89 300 c 0
 116 352 151 385 197 401 c 0
 222 410 253 416 278 415 c 0
 292 414 295 415 309 421 c 0
 329 431 342 444 351 464 c 0
 355 472 358 482 360 497 c 0
 364 534 353 563 331 574 c 2
 325 577 l 1
 313 577 l 2
 298 576 289 574 279 569 c 0
 261 560 249 547 244 529 c 0
 243 526 241 524 239 522 c 0
 218 506 150 508 143 527 c 0
 141 532 149 549 157 560 c 0
 181 590 226 608 290 613 c 0
553 558 m 0
 551 563 549 567 548 568 c 2
 546 570 l 1
 538 563 l 2
 495 528 453 447 425 343 c 0
 423 335 422 329 421 328 c 0
 421 326 423 326 483 326 c 2
 546 327 l 1
 550 340 l 1
 568 417 573 477 565 523 c 0
 563 536 558 547 553 558 c 0
334 379 m 0
 334 381 332 381 321 379 c 0
 316 379 303 378 291 377 c 2
 270 377 l 1
 262 372 l 2
 239 362 221 345 203 318 c 0
 185 290 170 254 158 209 c 0
 148 168 145 144 145 117 c 0
 145 94 146 85 151 70 c 0
 156 55 163 43 173 37 c 2
 178 34 l 1
 184 36 l 2
 199 42 215 55 227 70 c 0
 254 102 274 145 289 205 c 0
 290 207 290 209 291 211 c 0
 293 213 294 216 297 229 c 0
 302 251 307 277 315 310 c 0
 321 335 332 374 334 379 c 0
EndSplineSet
EndChar

StartChar: oslash
Encoding: 248 248 109
Width: 576
VWidth: 910
Flags: HW
LayerCount: 2
Fore
SplineSet
417 619 m 0
 426 620 466 619 476 618 c 0
 504 613 529 607 547 598 c 2
 552 595 l 1
 555 600 l 2
 557 603 560 605 563 606 c 0
 591 621 654 613 654 596 c 0
 654 592 656 594 630 563 c 2
 610 539 l 1
 613 532 l 2
 620 517 626 495 630 473 c 0
 632 459 632 415 630 400 c 0
 624 340 605 266 583 212 c 0
 571 182 552 147 536 123 c 0
 512 90 484 61 456 43 c 0
 419 18 378 2 330 -4 c 0
 315 -6 273 -6 259 -4 c 0
 228 0 206 5 185 15 c 2
 178 18 l 1
 174 14 l 2
 166 5 149 0 126 0 c 0
 96 0 71 10 76 21 c 0
 76 22 85 34 97 49 c 0
 109 63 119 75 119 76 c 2
 119 76 118 78 117 82 c 0
 110 95 103 119 99 141 c 0
 97 155 97 199 99 214 c 0
 104 260 120 325 136 375 c 0
 160 444 194 502 236 542 c 0
 283 587 344 614 417 619 c 0
449 582 m 0
 441 583 432 583 422 581 c 0
 396 576 365 558 340 537 c 0
 317 518 294 489 276 458 c 0
 268 445 252 412 247 397 c 0
 232 362 218 314 209 270 c 0
 203 236 199 214 198 188 c 2
 198 171 l 1
 200 173 l 2
 202 175 503 538 504 540 c 0
 505 542 500 548 492 556 c 0
 480 568 464 578 449 582 c 0
531 426 m 2
 531 442 l 2
 530 442 462 360 377 258 c 2
 224 74 l 1
 227 69 l 2
 234 59 249 46 261 40 c 0
 269 35 281 33 289 32 c 0
 308 31 339 42 366 59 c 0
 421 94 465 161 494 248 c 0
 515 310 529 376 531 426 c 2
EndSplineSet
EndChar
